<?xml version="1.0" encoding="utf-8"?>
<!-- Generator: Adobe Illustrator 16.0.0, SVG Export Plug-In . SVG Version: 6.00 Build 0)  -->
<!DOCTYPE svg PUBLIC "-//W3C//DTD SVG 1.1//EN" "http://www.w3.org/Graphics/SVG/1.1/DTD/svg11.dtd">
<svg version="1.1" id="Livello_1" xmlns="http://www.w3.org/2000/svg" xmlns:xlink="http://www.w3.org/1999/xlink" x="0px" y="0px"
	 width="200px" height="79.554px" viewBox="0 0 200 79.554" enable-background="new 0 0 200 79.554" xml:space="preserve">
<g>
	<path fill="#202335" d="M52.22,9.223c-1.477-0.311-3.264-0.543-4.818-0.543c-11.19,0-21.526,9.947-27.432,26.577
		c-2.409,6.917-3.963,14.299-3.963,18.807c0,2.875,0.622,4.43,1.787,4.506c1.243,0,6.528,1.244,8.704,2.021
		c3.886-0.154,9.636-3.885,14.688-9.559c8.937-9.947,14.377-24.324,14.377-38.079c0-2.098-0.155-4.352-0.311-5.051
		c4.196,2.098,5.828,4.663,5.828,9.014c0,12.512-8.315,29.531-19.505,39.866c-3.652,3.42-6.761,5.363-9.015,5.752
		c5.518,2.953,15.542,7.227,17.407,7.537c1.01-0.076,2.954-1.477,4.119-3.107c0.466,0.621,1.087,1.865,1.166,2.408
		c-0.777,2.875-5.75,8.316-8.237,8.938c-3.575-0.232-5.518-1.088-11.89-5.518c-11.346-7.85-16.475-10.102-23.08-10.102
		c-5.673,0-9.015,2.02-9.636,5.826c-0.699-0.311-1.244-0.932-1.321-1.477c0.622-5.283,3.73-7.926,10.491-8.781
		c-2.331-2.02-3.574-5.826-3.574-10.879c0-21.837,16.319-46.238,31.007-46.238c1.788,0,3.186,0.311,4.74,0.932
		C47.247,3.628,52.143,7.669,52.22,9.223z"/>
	<path fill="#202335" d="M78.881,50.644c0-1.167,0.155-2.098,0.389-2.798c-0.854-0.077-6.45,7.927-8.16,9.948
		c-1.321,1.398-2.642,2.33-3.342,2.408c-3.264-0.154-7.616-2.408-8.471-6.061c0-2.876,0.155-4.431,0.622-6.606
		c1.865-7.849,7.383-20.982,13.91-25.723c1.787,0,5.362,0.622,6.917,2.409c-0.933,1.01-5.207,6.917-9.869,17.952
		c-1.01,2.332-3.264,9.403-3.264,12.123c0,0.777,0.388,1.244,0.544,1.4c1.554-0.623,3.652-3.188,7.927-9.016
		c2.098-2.875,5.906-7.616,7.616-12.201c0.933-2.565,2.564-7.072,6.062-10.414c2.72,0,6.45,1.321,7.382,2.487
		c-3.808,9.092-9.792,17.795-9.792,25.956c0,4.43,1.709,6.141,1.709,7.15c0,0.232-0.311,0.311-0.311,0.311
		c-1.399,0-4.974-1.4-7.383-3.031C79.425,55.308,78.881,52.433,78.881,50.644z"/>
	<path fill="#202335" d="M100.955,38.676c0.466-2.021,2.72-10.103,7.382-12.434c1.71,0.389,5.207,2.099,7.228,5.129
		c-4.74,5.284-6.139,10.802-8.782,17.641c-1.087,2.876-2.253,6.218-2.33,8.472c0,1.865,0,2.564-0.467,2.564
		c-0.777,0-5.673-2.021-5.673-6.607C98.313,51.653,98.935,48.001,100.955,38.676z M113.389,18.316
		c-0.544-0.544-0.933-1.71-0.933-2.564c0-1.788,1.088-6.839,2.409-10.181c2.408,0,7.849,3.109,9.403,5.44
		c-2.332,2.175-8.005,9.092-8.782,10.801c-1.243-0.233-2.331-1.243-2.331-2.098C113.155,19.403,113.233,18.938,113.389,18.316z"/>
	<path fill="#202335" d="M135.615,28.418c-2.331,5.672-10.491,16.708-11.112,21.448c3.264-3.497,8.548-10.024,10.335-11.89
		c3.963-4.196,11.268-11.89,16.319-11.89c2.643,0,4.508,2.254,5.518,4.196c0,0.233-0.854,0.311-2.254,1.943
		c-2.797,3.653-8.082,13.91-8.082,20.283c0,2.564,0.7,3.031,1.943,3.031c1.088,0,2.564-0.777,3.264-0.777
		c0.389,0.232,0.699,1.088,0.699,1.555c-1.554,1.398-4.896,3.186-6.683,3.186c-5.984,0-7.383-3.652-7.383-8.237
		c0-2.564,0.699-5.751,4.273-13.988c-0.232,0-3.264,1.477-6.295,4.429c-4.817,4.663-8.469,8.938-12.511,14.533
		c-2.254,3.186-3.963,5.596-5.207,6.295c-2.176-1.244-3.108-3.73-3.574-6.063c0-3.885,2.331-12.589,5.828-20.593
		c3.964-9.093,7.616-14.532,8.471-14.921C131.885,21.813,134.527,24.999,135.615,28.418z"/>
	<path fill="#202335" d="M177.583,28.418c-2.332,5.672-10.491,16.708-11.113,21.448c3.264-3.497,8.548-10.024,10.335-11.89
		c3.964-4.196,11.269-11.89,16.32-11.89c2.642,0,4.507,2.254,5.518,4.196c0,0.233-0.855,0.311-2.254,1.943
		c-2.798,3.653-8.082,13.91-8.082,20.283c0,2.564,0.699,3.031,1.942,3.031c1.089,0,2.565-0.777,3.265-0.777
		c0.388,0.232,0.698,1.088,0.698,1.555c-1.554,1.398-4.895,3.186-6.682,3.186c-5.984,0-7.384-3.652-7.384-8.237
		c0-2.564,0.7-5.751,4.274-13.988c-0.232,0-3.264,1.477-6.295,4.429c-4.818,4.663-8.47,8.938-12.511,14.533
		c-2.255,3.186-3.964,5.596-5.207,6.295c-2.177-1.244-3.108-3.73-3.574-6.063c0-3.885,2.331-12.589,5.828-20.593
		c3.963-9.093,7.615-14.532,8.471-14.921C173.853,21.813,176.494,24.999,177.583,28.418z"/>
</g>
</svg>
