<?xml version="1.0" encoding="utf-8"?>
<!-- Generator: Adobe Illustrator 16.0.0, SVG Export Plug-In . SVG Version: 6.00 Build 0)  -->
<!DOCTYPE svg PUBLIC "-//W3C//DTD SVG 1.1//EN" "http://www.w3.org/Graphics/SVG/1.1/DTD/svg11.dtd">
<svg version="1.1" id="Livello_1" xmlns="http://www.w3.org/2000/svg" xmlns:xlink="http://www.w3.org/1999/xlink" x="0px" y="0px"
	 width="286.334px" height="67px" viewBox="0 0 286.334 67" enable-background="new 0 0 286.334 67" xml:space="preserve">
<path fill="#FFFFFF" d="M164.599,24.609h-11.066v1.174c3.462,0,4.019,0.742,4.019,5.132v7.915c0,4.389-0.557,5.193-4.019,5.193
	c-2.658-0.371-4.452-1.793-6.926-4.515l-2.844-3.091c3.832-0.682,5.874-3.092,5.874-5.813c0-3.4-2.907-5.997-8.347-5.997h-10.883
	v1.174c3.462,0,4.02,0.742,4.02,5.132v7.915c0,4.39-0.558,5.192-4.02,5.192v1.174h12.304v-1.174c-3.462,0-4.019-0.803-4.019-5.192
	v-2.226h1.052l6.862,8.592h17.992c8.84,0,12.674-4.697,12.674-10.324C177.272,29.246,173.438,24.609,164.599,24.609z
	 M138.692,34.686v-8.222h2.534c2.783,0,4.02,1.916,4.02,4.142c0,2.165-1.236,4.08-4.02,4.08H138.692z M164.785,43.281h-0.435
	c-2.226,0-2.535-0.557-2.535-3.401V26.464c0,0,2.721,0,2.97,0c6.429,0,7.604,4.698,7.604,8.347
	C172.39,38.583,171.214,43.281,164.785,43.281z"/>
<path fill="#FFFFFF" d="M6.104,33.585c0,10.817,6.286,20.167,15.403,24.597L8.47,22.464C6.954,25.862,6.104,29.624,6.104,33.585z
	 M51.881,32.208c0-3.379-1.213-5.717-2.252-7.537c-1.386-2.252-2.685-4.158-2.685-6.41c0-2.512,1.905-4.851,4.589-4.851
	c0.122,0,0.236,0.015,0.354,0.022c-4.862-4.455-11.339-7.175-18.455-7.175c-9.548,0-17.947,4.899-22.833,12.318
	c0.642,0.02,1.247,0.033,1.758,0.033c2.858,0,7.284-0.348,7.284-0.348c1.472-0.086,1.646,2.078,0.175,2.252
	c0,0-1.48,0.173-3.128,0.26l9.952,29.602l5.981-17.937l-4.257-11.666c-1.473-0.087-2.866-0.26-2.866-0.26
	c-1.473-0.087-1.3-2.338,0.173-2.252c0,0,4.512,0.348,7.197,0.348c2.858,0,7.285-0.348,7.285-0.348
	c1.473-0.086,1.646,2.078,0.174,2.252c0,0-1.482,0.173-3.127,0.26l9.876,29.375l2.727-9.106
	C51.187,37.49,51.881,34.546,51.881,32.208z M33.912,35.977l-8.2,23.828c2.449,0.719,5.038,1.113,7.72,1.113
	c3.183,0,6.235-0.551,9.076-1.551c-0.073-0.116-0.141-0.241-0.196-0.376L33.912,35.977z M57.414,20.475
	c0.117,0.871,0.184,1.804,0.184,2.81c0,2.772-0.52,5.89-2.08,9.789l-8.346,24.135c8.125-4.736,13.589-13.54,13.589-23.623
	C60.761,28.834,59.546,24.368,57.414,20.475z"/>
<g>
	<path fill="#FFFFFF" d="M1.575,33.585c0,17.567,14.292,31.86,31.857,31.86c17.566,0,31.857-14.293,31.857-31.86
		c0-17.566-14.291-31.856-31.857-31.856C15.867,1.729,1.575,16.02,1.575,33.585z M3.037,33.585c0-16.76,13.635-30.396,30.396-30.396
		c16.761,0,30.396,13.636,30.396,30.396c0,16.761-13.635,30.399-30.396,30.399C16.672,63.984,3.037,50.348,3.037,33.585z"/>
</g>
<g>
	<rect x="72.881" y="50.025" fill="#FFFFFF" width="211.659" height="1.461"/>
</g>
<path fill="#FFFFFF" d="M95.971,36.975l4.266-12.614c1.238-3.647,0.681-4.698-3.277-4.698v-1.237h11.623v1.237
	c-3.895,0-4.821,0.927-6.367,5.441l-7.049,21.145h-0.803l-6.306-19.353l-6.431,19.353h-0.803L73.96,25.104
	c-1.484-4.514-2.474-5.441-6.06-5.441v-1.237h13.726v1.237c-3.647,0-4.638,0.865-3.338,4.698l4.143,12.614l6.244-18.55h1.175
	L95.971,36.975z"/>
<path fill="#FFFFFF" d="M116.991,46.001c-6.801,0-12.366-5.008-12.366-11.13c0-6.058,5.565-11.067,12.366-11.067
	c6.802,0,12.365,5.009,12.365,11.067C129.356,40.993,123.793,46.001,116.991,46.001z M116.991,25.722
	c-5.688,0-7.667,5.132-7.667,9.15c0,4.082,1.979,9.151,7.667,9.151c5.751,0,7.729-5.069,7.729-9.151
	C124.72,30.854,122.742,25.722,116.991,25.722z"/>
<path fill="#FFFFFF" d="M192.544,43.961v1.234h-14.158v-1.234c4.143,0,4.885-1.051,4.885-7.234v-9.892
	c0-6.185-0.742-7.173-4.885-7.173v-1.237h12.797c6.369,0,9.895,3.278,9.895,7.667c0,4.266-3.524,7.605-9.895,7.605h-3.522v3.03
	C187.659,42.91,188.401,43.961,192.544,43.961z M191.183,20.651h-3.522V31.41h3.522c3.463,0,5.07-2.411,5.07-5.317
	C196.253,23.125,194.646,20.651,191.183,20.651z"/>
<path fill="#FFFFFF" d="M243.551,39.387l-0.309,1.112c-0.558,2.04-1.237,2.782-5.626,2.782h-0.866c-3.215,0-3.771-0.742-3.771-5.133
	v-2.844c4.821,0,5.191,0.434,5.191,3.648h1.176V29.74h-1.176c0,3.215-0.37,3.647-5.191,3.647v-6.923h3.398
	c4.391,0,5.07,0.742,5.626,2.782l0.31,1.174h0.989l-0.433-5.812h-18.178v1.174c3.461,0,4.019,0.742,4.019,5.132v7.915
	c0,4.017-0.474,5.026-3.202,5.172c-2.595-0.396-4.376-1.812-6.812-4.492l-2.847-3.091c3.834-0.682,5.875-3.092,5.875-5.813
	c0-3.4-2.906-5.997-8.348-5.997h-10.881v1.174c3.461,0,4.018,0.742,4.018,5.132v7.915c0,4.39-0.557,5.192-4.018,5.192v1.174H214.8
	v-1.174c-3.462,0-4.019-0.803-4.019-5.192v-2.226h1.051l6.864,8.592h25.41l0.371-5.811h-0.927V39.387z M210.783,34.686v-8.222h2.534
	c2.783,0,4.02,1.916,4.02,4.142c0,2.165-1.236,4.08-4.02,4.08H210.783z"/>
<path fill="#FFFFFF" d="M256.103,46.001c-2.473,0-4.638-1.298-5.564-2.103c-0.309,0.31-0.865,1.236-0.988,2.103h-1.175v-8.532h1.235
	c0.494,4.081,3.34,6.492,6.985,6.492c1.979,0,3.589-1.113,3.589-2.968c0-1.606-1.424-2.845-3.959-4.019l-3.523-1.67
	c-2.473-1.175-4.327-3.216-4.327-5.936c0-2.968,2.782-5.502,6.615-5.502c2.041,0,3.771,0.742,4.823,1.607
	c0.309-0.248,0.617-0.928,0.804-1.67h1.174V31.1h-1.298c-0.434-2.906-2.04-5.317-5.316-5.317c-1.73,0-3.34,0.989-3.34,2.536
	c0,1.607,1.298,2.473,4.268,3.833l3.398,1.669c2.969,1.422,4.143,3.71,4.143,5.566C263.646,43.281,260.244,46.001,256.103,46.001z"
	/>
<path fill="#FFFFFF" d="M275.146,46.001c-2.474,0-4.638-1.298-5.564-2.103c-0.309,0.31-0.866,1.236-0.989,2.103h-1.174v-8.532h1.233
	c0.496,4.081,3.341,6.492,6.988,6.492c1.979,0,3.586-1.113,3.586-2.968c0-1.606-1.423-2.845-3.957-4.019l-3.524-1.67
	c-2.472-1.175-4.326-3.216-4.326-5.936c0-2.968,2.78-5.502,6.614-5.502c2.041,0,3.771,0.742,4.822,1.607
	c0.31-0.248,0.619-0.928,0.804-1.67h1.176V31.1h-1.299c-0.433-2.906-2.041-5.317-5.316-5.317c-1.731,0-3.34,0.989-3.34,2.536
	c0,1.607,1.298,2.473,4.267,3.833l3.4,1.669c2.969,1.422,4.143,3.71,4.143,5.566C282.688,43.281,279.287,46.001,275.146,46.001z"/>
</svg>
