<?xml version="1.0" encoding="utf-8"?>
<!-- Generator: Adobe Illustrator 17.0.1, SVG Export Plug-In . SVG Version: 6.00 Build 0)  -->
<!DOCTYPE svg PUBLIC "-//W3C//DTD SVG 1.1//EN" "http://www.w3.org/Graphics/SVG/1.1/DTD/svg11.dtd">
<svg version="1.1" id="Layer_1" xmlns="http://www.w3.org/2000/svg" xmlns:xlink="http://www.w3.org/1999/xlink" x="0px" y="0px"
	 width="101px" height="101px" viewBox="0 0 101 101" enable-background="new 0 0 101 101" xml:space="preserve">
<g>
	<path fill="#F4898C" d="M100.066,50.499c0,27.378-22.192,49.566-49.568,49.566c-27.374,0-49.564-22.188-49.564-49.566
		c0-27.374,22.19-49.565,49.564-49.565C77.874,0.935,100.066,23.125,100.066,50.499z"/>
	<g>
		<g>
			<path fill="#FFFFFF" d="M50.481,22.657c15.376,0,27.839,12.468,27.839,27.845c0,15.381-12.463,27.842-27.839,27.842
				c-15.376,0-27.844-12.462-27.844-27.842C22.637,35.125,35.105,22.657,50.481,22.657z"/>
		</g>
		<g>
			<g>
				<path fill="#F4898C" d="M50.481,27.907c12.475,0,22.592,10.125,22.592,22.595c0,12.476-10.116,22.593-22.592,22.593
					c-12.481,0-22.595-10.116-22.595-22.593C27.886,38.032,38,27.907,50.481,27.907 M50.481,26.999
					c-12.96,0-23.503,10.543-23.503,23.503c0,12.958,10.543,23.501,23.503,23.501c12.958,0,23.499-10.542,23.499-23.501
					C73.981,37.542,63.439,26.999,50.481,26.999L50.481,26.999z"/>
			</g>
		</g>
		<path fill="#FFFFFF" d="M90.431,33.999c0-4.712-2.778-8.53-6.206-8.53c-3.424,0-6.204,3.817-6.204,8.53
			c0,4.156,2.166,7.61,5.024,8.372l-0.453,28.436c0,0.91,0.729,1.638,1.634,1.638c0.903,0,1.633-0.729,1.633-1.638l-0.443-28.439
			C88.269,41.609,90.431,38.154,90.431,33.999z"/>
		<path fill="#FFFFFF" d="M20.635,37.735L20.212,25.53c0-0.219-0.18-0.4-0.404-0.4c-0.223,0-0.405,0.18-0.405,0.4v11.159
			c-0.04-0.005-0.083-0.014-0.128-0.014h-0.868l-0.317-11.141c0-0.221-0.176-0.404-0.398-0.405c-0.226,0-0.402,0.182-0.407,0.401
			L17.22,36.676h-0.997l-0.206-11.147c-0.006-0.228-0.188-0.407-0.416-0.4c-0.214,0.002-0.394,0.184-0.394,0.413l-0.172,11.134
			h-0.843c-0.043,0-0.089,0.009-0.126,0.014V25.53c0-0.219-0.186-0.4-0.399-0.4c-0.227,0-0.41,0.18-0.41,0.4l-0.416,12.205
			c-0.028,0.115-0.046,0.228-0.046,0.345v1.972c0,0.758,1.947,2.72,2.753,2.793l-0.446,27.962c0,0.91,0.734,1.638,1.637,1.638
			c0.898,0,1.63-0.729,1.63-1.638l-0.439-27.962c0.812-0.082,2.749-2.035,2.749-2.793V38.08
			C20.679,37.963,20.66,37.85,20.635,37.735z"/>
	</g>
</g>
</svg>
