<?xml version="1.0" encoding="utf-8"?>
<!-- Generator: Adobe Illustrator 17.0.1, SVG Export Plug-In . SVG Version: 6.00 Build 0)  -->
<!DOCTYPE svg PUBLIC "-//W3C//DTD SVG 1.1//EN" "http://www.w3.org/Graphics/SVG/1.1/DTD/svg11.dtd">
<svg version="1.1" id="Layer_1" xmlns="http://www.w3.org/2000/svg" xmlns:xlink="http://www.w3.org/1999/xlink" x="0px" y="0px"
	 width="101px" height="101px" viewBox="0 0 101 101" enable-background="new 0 0 101 101" xml:space="preserve">
<g>
	<path fill="#F4898C" d="M100.649,50.499c0,27.697-22.452,50.151-50.149,50.151S0.351,78.196,0.351,50.499
		C0.351,22.805,22.803,0.35,50.5,0.35S100.649,22.805,100.649,50.499z"/>
	<g>
		<path fill="#FFFFFF" d="M28.808,78.737c0,1.96,1.621,3.553,3.614,3.553h36.15c1.997,0,3.621-1.593,3.621-3.553l-0.051-1.284
			H28.858L28.808,78.737z"/>
		<path fill="#FFFFFF" d="M70.913,44.473c0-1.961-1.616-3.555-3.615-3.555H33.701c-1.994,0-3.616,1.594-3.616,3.555L28.905,76.1
			h43.187L70.913,44.473z M38.163,73.956h-4.406V46.17h4.406V73.956z"/>
		<g>
			<circle fill="#FFFFFF" cx="30.219" cy="40.97" r="13.303"/>
			<path fill="#F4898C" d="M20,39.743c0-4.861,3.946-8.802,8.808-8.802c0.417,0,0.811,0.067,1.216,0.123
				c-4.288,0.597-7.597,4.232-7.597,8.679H20z"/>
			<path fill="#FFFFFF" d="M67.752,35.963c0,9.531-7.723,17.254-17.252,17.254c-9.526,0-17.252-7.724-17.252-17.254
				c0-9.525,7.726-17.25,17.252-17.25C60.029,18.712,67.752,26.438,67.752,35.963z"/>
			<path fill="#FFFFFF" d="M84.086,40.97c0,7.349-5.958,13.301-13.306,13.301c-7.343,0-13.299-5.953-13.299-13.301
				c0-7.348,5.956-13.3,13.299-13.3C78.128,27.67,84.086,33.622,84.086,40.97z"/>
		</g>
	</g>
</g>
</svg>
