<?xml version="1.0" encoding="utf-8"?>
<!-- Generator: Adobe Illustrator 17.0.1, SVG Export Plug-In . SVG Version: 6.00 Build 0)  -->
<!DOCTYPE svg PUBLIC "-//W3C//DTD SVG 1.1//EN" "http://www.w3.org/Graphics/SVG/1.1/DTD/svg11.dtd">
<svg version="1.1" id="Layer_1" xmlns="http://www.w3.org/2000/svg" xmlns:xlink="http://www.w3.org/1999/xlink" x="0px" y="0px"
	 width="140px" height="90px" viewBox="0 0 140 90" enable-background="new 0 0 140 90" xml:space="preserve">
<g>
	<path fill="#FFFFFF" d="M70.279,14.663c1.475-0.203,2.992-0.207,4.466,0c0.492,0.069,0.95,0.299,1.434,0.407
		c4.687,1.053,9.752,2.499,10.591,7.838c0.373,2.376,0.64,4.897,0,7.215c-0.42,1.523-1.443,2.87-2.469,4.038
		c-2.21,2.515-5.158,3.938-8.345,4.824c-1.639,0.456-3.296,0.919-4.99,1.101c-1.139,0.122-2.295,0.103-3.436,0
		c-0.734-0.066-1.447-0.3-2.177-0.39c-3.804-0.471-7.376-1.546-10.411-3.997c-0.423-0.341-0.902-0.799-1.032-1.288
		c-0.946-3.57-0.037-5.289,3.379-6.596c0.107-0.041,0.222-0.058,0.328-0.1c2.549-1.007,2.949-1.634,2.303-4.235
		c-0.422-1.697,0.076-3.041,1.193-4.23c1.806-1.923,4.027-3.166,6.565-3.857C68.547,15.156,69.387,14.786,70.279,14.663z
		 M67.018,35.674c2.567,0.092,4.451-0.364,6.292-0.729c4.142-0.82,7.837-2.526,10.427-6.04c2.635-3.574,2.236-7.372-0.973-9.867
		c-5.356-4.163-14.609-4.095-19.879,0.154c-1.489,1.201-2.254,2.575-1.672,4.632c0.661,2.333-0.007,3.491-2.18,4.558
		c-0.511,0.251-1.092,0.377-1.569,0.674c-0.816,0.508-1.829,0.966-1.957,1.921c-0.14,1.043,0.825,1.499,1.621,2.154
		c0.68,0.559,1.593,0.953,2.464,1.141C62.256,34.849,64.917,35.599,67.018,35.674z"/>
	<path fill="#FFFFFF" d="M67.264,33.958c-2.772-0.011-4.595-0.752-6.414-1.203c-0.855-0.212-1.699-0.695-2.401-1.244
		c-0.806-0.63-0.816-1.35,0.296-1.785c0.954-0.373,1.945-0.683,2.843-1.164c1.955-1.049,2.689-2.803,1.912-4.901
		c-0.629-1.698-0.046-2.815,1.369-3.564c4.885-2.586,9.94-2.936,14.993-0.627c3.526,1.611,4.409,5.227,2.293,8.477
		c-1.471,2.259-3.614,3.774-6.13,4.424C72.906,33.177,69.71,33.967,67.264,33.958z M80.263,26.23
		c-0.384-0.806-1.517-0.393-2.149-0.616c-2.067-0.731-2.806-2.068-2.472-4.249c0.066-0.435,0.173-1.101-0.206-1.367
		c-0.264-0.186-0.817,0.017-0.914,0.195c-0.212,0.387-0.357,0.91-0.286,1.337c0.475,2.887,0.319,3.197-2.24,4.352
		c-0.418,0.189-0.767,0.563-1.08,0.913c-0.052,0.058,0.27,0.635,0.379,0.623c0.522-0.059,1.138-0.1,1.526-0.399
		c2.604-2.004,2.601-2.042,5.401-0.048C79.16,27.64,80.843,27.446,80.263,26.23z"/>
</g>
<g>
	<path fill="#FFFFFF" d="M39.208,66.67c0.101-0.123,0.227-0.218,0.379-0.286c0.151-0.067,0.311-0.101,0.479-0.101
		c0.202,0,0.384,0.067,0.547,0.202c0.162,0.135,0.243,0.309,0.243,0.522c0,0.426-0.146,0.819-0.437,1.177
		c-1.537,1.884-3.651,2.827-6.343,2.827c-1.346,0-2.529-0.187-3.551-0.563c-1.02-0.376-1.87-0.92-2.549-1.632
		c-0.679-0.712-1.189-1.576-1.531-2.591c-0.343-1.015-0.513-2.162-0.513-3.441c0-2.972,0.687-5.227,2.061-6.764
		c1.373-1.537,3.378-2.305,6.014-2.305c1.044,0,1.988,0.151,2.835,0.454c0.847,0.303,1.574,0.749,2.179,1.338
		c0.606,0.589,1.074,1.315,1.406,2.179c0.33,0.864,0.497,1.851,0.497,2.961c0,1.122-0.651,1.683-1.952,1.683h-9.271
		c-0.011,0.09-0.02,0.199-0.025,0.328c-0.006,0.129-0.008,0.272-0.008,0.429c0,0.987,0.095,1.876,0.286,2.667
		c0.191,0.79,0.482,1.464,0.875,2.019s0.889,0.982,1.49,1.279c0.6,0.297,1.309,0.446,2.128,0.446c0.673,0,1.25-0.087,1.733-0.26
		c0.482-0.174,0.895-0.387,1.237-0.639c0.341-0.252,0.63-0.519,0.866-0.8c0.235-0.28,0.438-0.521,0.606-0.724L39.208,66.67z
		 M33.79,55.094c-1.111,0-2.017,0.469-2.718,1.405c-0.701,0.937-1.125,2.398-1.271,4.383h6.445c0.403,0,0.698-0.073,0.883-0.219
		c0.185-0.145,0.278-0.409,0.278-0.791c0-0.774-0.098-1.458-0.294-2.053c-0.197-0.594-0.46-1.094-0.79-1.498
		c-0.331-0.404-0.715-0.709-1.153-0.917S34.272,55.094,33.79,55.094z"/>
	<path fill="#FFFFFF" d="M55.158,67.764l-0.1-0.034c-0.752,1.145-1.615,1.977-2.591,2.499c-0.976,0.521-2.137,0.782-3.483,0.782
		c-0.853,0-1.604-0.109-2.255-0.328c-0.651-0.218-1.195-0.53-1.632-0.934s-0.765-0.892-0.984-1.464s-0.328-1.211-0.328-1.918
		c0-0.741,0.127-1.472,0.379-2.196c0.252-0.724,0.703-1.371,1.354-1.944c0.651-0.572,1.537-1.032,2.659-1.38s2.552-0.521,4.29-0.521
		h2.523v-0.959c0-0.785-0.067-1.45-0.202-1.994s-0.339-0.984-0.614-1.321c-0.275-0.336-0.631-0.581-1.068-0.732
		c-0.438-0.151-0.96-0.227-1.565-0.227c-1.145,0-2.154,0.482-3.029,1.447c-0.741,0.808-1.442,1.211-2.104,1.211
		c-0.392,0-0.692-0.112-0.9-0.336s-0.311-0.505-0.311-0.841c0-0.438,0.208-0.833,0.622-1.187c0.415-0.353,0.957-0.653,1.623-0.9
		c0.668-0.247,1.42-0.438,2.255-0.572c0.836-0.135,1.68-0.202,2.532-0.202c1.245,0,2.277,0.129,3.096,0.387s1.472,0.645,1.961,1.161
		c0.487,0.516,0.83,1.164,1.027,1.944c0.196,0.78,0.294,1.697,0.294,2.751v9.439c0,0.55-0.095,0.957-0.286,1.22
		c-0.191,0.263-0.544,0.395-1.06,0.395c-0.752,0-1.29-0.255-1.615-0.766C55.321,69.736,55.158,68.908,55.158,67.764z M55.024,61.774
		h-2.002c-3.77,0-5.653,1.372-5.653,4.115c0,1.889,0.998,2.834,2.994,2.834c0.438,0,0.925-0.084,1.464-0.253
		c0.538-0.169,1.046-0.422,1.522-0.759c0.477-0.337,0.876-0.759,1.195-1.265c0.32-0.506,0.48-1.096,0.48-1.771V61.774z"/>
	<path fill="#FFFFFF" d="M68.45,51.258v2.456h3.837c0.403,0,0.704,0.073,0.9,0.219c0.197,0.146,0.295,0.325,0.295,0.539
		c0,0.236-0.109,0.443-0.328,0.622c-0.219,0.18-0.508,0.27-0.866,0.27H68.45v11.004c0,0.538,0.057,1.007,0.168,1.404
		c0.112,0.399,0.261,0.724,0.446,0.976s0.404,0.44,0.657,0.563c0.252,0.124,0.519,0.185,0.8,0.185c0.448,0,0.827-0.081,1.135-0.244
		c0.309-0.163,0.569-0.362,0.782-0.597c0.214-0.236,0.396-0.497,0.547-0.782c0.151-0.286,0.3-0.547,0.446-0.782
		c0.146-0.236,0.306-0.435,0.479-0.597c0.174-0.163,0.39-0.244,0.649-0.244c0.269,0,0.484,0.076,0.648,0.227
		c0.162,0.151,0.244,0.357,0.244,0.615c0,0.179-0.057,0.404-0.169,0.673c-0.111,0.269-0.23,0.477-0.353,0.623
		c-0.584,0.875-1.293,1.531-2.129,1.968c-0.835,0.437-1.73,0.656-2.683,0.656c-1.02,0-1.868-0.132-2.54-0.395
		c-0.673-0.263-1.212-0.634-1.615-1.111c-0.404-0.477-0.687-1.052-0.85-1.725c-0.162-0.673-0.243-1.413-0.243-2.221V55.364h-1.885
		c-0.403,0-0.69-0.056-0.858-0.168c-0.168-0.112-0.252-0.297-0.252-0.555c0-0.236,0.138-0.426,0.412-0.572
		c0.275-0.146,0.622-0.331,1.043-0.555c0.422-0.224,0.878-0.539,1.372-0.942c0.493-0.404,0.959-0.981,1.396-1.733
		c0.157-0.27,0.289-0.497,0.395-0.681c0.106-0.185,0.21-0.336,0.311-0.454s0.208-0.202,0.32-0.252
		c0.111-0.051,0.246-0.075,0.403-0.075c0.392,0,0.644,0.137,0.757,0.412C68.394,50.061,68.45,50.552,68.45,51.258z"/>
	<path fill="#FFFFFF" d="M83.122,51.258v2.456h3.837c0.403,0,0.704,0.073,0.9,0.219c0.197,0.146,0.295,0.325,0.295,0.539
		c0,0.236-0.109,0.443-0.328,0.622c-0.219,0.18-0.508,0.27-0.866,0.27h-3.837v11.004c0,0.538,0.057,1.007,0.168,1.404
		c0.112,0.399,0.261,0.724,0.446,0.976s0.404,0.44,0.657,0.563c0.252,0.124,0.519,0.185,0.8,0.185c0.448,0,0.827-0.081,1.135-0.244
		c0.309-0.163,0.569-0.362,0.782-0.597c0.214-0.236,0.396-0.497,0.547-0.782c0.151-0.286,0.3-0.547,0.446-0.782
		c0.146-0.236,0.306-0.435,0.479-0.597c0.174-0.163,0.39-0.244,0.649-0.244c0.269,0,0.484,0.076,0.648,0.227
		c0.162,0.151,0.244,0.357,0.244,0.615c0,0.179-0.057,0.404-0.169,0.673c-0.111,0.269-0.23,0.477-0.353,0.623
		c-0.584,0.875-1.293,1.531-2.129,1.968c-0.835,0.437-1.73,0.656-2.683,0.656c-1.02,0-1.868-0.132-2.54-0.395
		c-0.673-0.263-1.212-0.634-1.615-1.111c-0.404-0.477-0.687-1.052-0.85-1.725c-0.162-0.673-0.243-1.413-0.243-2.221V55.364h-1.885
		c-0.403,0-0.69-0.056-0.858-0.168s-0.252-0.297-0.252-0.555c0-0.236,0.138-0.426,0.412-0.572c0.275-0.146,0.622-0.331,1.043-0.555
		c0.422-0.224,0.878-0.539,1.372-0.942c0.493-0.404,0.959-0.981,1.396-1.733c0.157-0.27,0.289-0.497,0.395-0.681
		c0.106-0.185,0.21-0.336,0.311-0.454s0.208-0.202,0.32-0.252c0.111-0.051,0.246-0.075,0.403-0.075c0.392,0,0.644,0.137,0.757,0.412
		C83.066,50.061,83.122,50.552,83.122,51.258z"/>
	<path fill="#FFFFFF" d="M93.605,50.855c-0.415-0.415-0.622-0.92-0.622-1.514c0-0.28,0.056-0.552,0.168-0.816
		c0.111-0.263,0.263-0.491,0.454-0.681c0.191-0.191,0.414-0.345,0.673-0.463c0.258-0.118,0.533-0.176,0.825-0.176
		c0.28,0,0.552,0.059,0.816,0.176c0.263,0.118,0.49,0.273,0.681,0.463c0.192,0.191,0.346,0.418,0.463,0.681
		c0.118,0.263,0.176,0.536,0.176,0.816c0,0.292-0.056,0.566-0.168,0.824c-0.111,0.258-0.267,0.485-0.462,0.681
		c-0.197,0.197-0.424,0.351-0.682,0.463c-0.257,0.112-0.533,0.168-0.824,0.168C94.519,51.477,94.019,51.27,93.605,50.855z
		 M96.97,56.054v12.619c0,0.494-0.04,0.892-0.119,1.195c-0.078,0.303-0.205,0.539-0.378,0.707c-0.174,0.168-0.401,0.283-0.682,0.345
		c-0.28,0.062-0.622,0.093-1.025,0.093c-0.539,0-0.904-0.132-1.094-0.395c-0.191-0.263-0.286-0.67-0.286-1.22V55.33
		c0-0.549,0.095-0.956,0.286-1.22c0.191-0.263,0.555-0.396,1.094-0.396c0.751,0,1.306,0.188,1.665,0.564
		C96.791,54.655,96.97,55.246,96.97,56.054z"/>
	<path fill="#FFFFFF" d="M114.888,66.67c0.101-0.123,0.227-0.218,0.379-0.286c0.151-0.067,0.311-0.101,0.479-0.101
		c0.202,0,0.384,0.067,0.547,0.202c0.162,0.135,0.243,0.309,0.243,0.522c0,0.426-0.146,0.819-0.437,1.177
		c-1.537,1.884-3.651,2.827-6.343,2.827c-1.346,0-2.529-0.187-3.551-0.563c-1.02-0.376-1.87-0.92-2.549-1.632
		s-1.189-1.576-1.531-2.591c-0.343-1.015-0.513-2.162-0.513-3.441c0-2.972,0.687-5.227,2.061-6.764
		c1.373-1.537,3.378-2.305,6.014-2.305c1.044,0,1.988,0.151,2.835,0.454c0.847,0.303,1.574,0.749,2.179,1.338
		c0.606,0.589,1.074,1.315,1.406,2.179c0.33,0.864,0.497,1.851,0.497,2.961c0,1.122-0.651,1.683-1.952,1.683h-9.271
		c-0.011,0.09-0.02,0.199-0.025,0.328c-0.006,0.129-0.008,0.272-0.008,0.429c0,0.987,0.095,1.876,0.286,2.667
		c0.191,0.79,0.482,1.464,0.875,2.019s0.889,0.982,1.49,1.279c0.6,0.297,1.309,0.446,2.128,0.446c0.673,0,1.25-0.087,1.733-0.26
		c0.482-0.174,0.895-0.387,1.237-0.639c0.341-0.252,0.63-0.519,0.866-0.8c0.235-0.28,0.438-0.521,0.606-0.724L114.888,66.67z
		 M109.471,55.094c-1.111,0-2.017,0.469-2.718,1.405c-0.701,0.937-1.125,2.398-1.271,4.383h6.445c0.403,0,0.698-0.073,0.883-0.219
		c0.185-0.145,0.278-0.409,0.278-0.791c0-0.774-0.098-1.458-0.294-2.053c-0.197-0.594-0.46-1.094-0.79-1.498
		c-0.331-0.404-0.715-0.709-1.153-0.917C110.412,55.198,109.952,55.094,109.471,55.094z"/>
</g>
</svg>
