<?xml version="1.0" encoding="utf-8"?>
<!-- Generator: Adobe Illustrator 17.0.1, SVG Export Plug-In . SVG Version: 6.00 Build 0)  -->
<!DOCTYPE svg PUBLIC "-//W3C//DTD SVG 1.1//EN" "http://www.w3.org/Graphics/SVG/1.1/DTD/svg11.dtd">
<svg version="1.1" id="Layer_1" xmlns="http://www.w3.org/2000/svg" xmlns:xlink="http://www.w3.org/1999/xlink" x="0px" y="0px"
	 width="133px" height="120px" viewBox="0 0 133 120" enable-background="new 0 0 133 120" xml:space="preserve">
<g>
	<path fill="#FFFFFF" d="M65.067,2.204c2.135-0.294,4.332-0.3,6.467,0c0.713,0.1,1.375,0.432,2.076,0.59
		c6.786,1.524,14.12,3.618,15.334,11.349c0.54,3.44,0.926,7.09,0,10.446c-0.609,2.206-2.089,4.156-3.574,5.846
		c-3.199,3.641-7.469,5.701-12.082,6.985c-2.373,0.66-4.773,1.331-7.226,1.594c-1.649,0.177-3.323,0.149-4.974,0
		c-1.063-0.096-2.095-0.434-3.153-0.565c-5.507-0.681-10.68-2.239-15.074-5.787c-0.612-0.494-1.306-1.157-1.494-1.865
		c-1.37-5.169-0.053-7.658,4.892-9.551c0.154-0.059,0.322-0.085,0.475-0.145c3.691-1.458,4.271-2.366,3.334-6.132
		c-0.611-2.458,0.11-4.403,1.727-6.124c2.615-2.784,5.83-4.583,9.505-5.584C62.56,2.919,63.776,2.383,65.067,2.204z M60.345,32.627
		c3.717,0.133,6.444-0.528,9.11-1.055c5.997-1.187,11.347-3.658,15.098-8.746c3.816-5.175,3.238-10.674-1.409-14.286
		C75.389,2.512,61.992,2.611,54.36,8.763c-2.157,1.738-3.264,3.729-2.421,6.707c0.956,3.378-0.01,5.055-3.157,6.599
		c-0.74,0.363-1.581,0.545-2.272,0.976c-1.182,0.735-2.648,1.399-2.833,2.782c-0.202,1.51,1.194,2.171,2.348,3.119
		c0.985,0.81,2.307,1.38,3.567,1.652C53.451,31.433,57.303,32.518,60.345,32.627z"/>
	<path fill="#FFFFFF" d="M60.701,30.142c-4.014-0.015-6.653-1.089-9.287-1.742c-1.239-0.307-2.46-1.007-3.476-1.801
		c-1.167-0.912-1.181-1.955,0.429-2.585c1.382-0.54,2.816-0.989,4.116-1.686c2.831-1.519,3.893-4.059,2.768-7.096
		c-0.911-2.459-0.067-4.076,1.983-5.161c7.072-3.744,14.393-4.251,21.708-0.908c5.106,2.333,6.384,7.569,3.32,12.275
		c-2.13,3.271-5.232,5.465-8.876,6.406C68.871,29.011,64.243,30.156,60.701,30.142z M79.523,18.953
		c-0.556-1.167-2.197-0.569-3.112-0.893c-2.993-1.058-4.062-2.994-3.58-6.153c0.096-0.63,0.25-1.594-0.298-1.979
		c-0.382-0.269-1.183,0.024-1.324,0.282c-0.307,0.561-0.516,1.317-0.415,1.935c0.687,4.181,0.462,4.628-3.244,6.302
		c-0.605,0.273-1.111,0.815-1.564,1.321c-0.076,0.084,0.39,0.92,0.548,0.902c0.756-0.086,1.647-0.145,2.21-0.578
		c3.771-2.901,3.766-2.957,7.82-0.069C77.925,20.994,80.363,20.714,79.523,18.953z"/>
</g>
<g>
	<path fill="#FFFFFF" d="M20.078,80.507c0.147-0.178,0.329-0.316,0.549-0.414c0.219-0.098,0.45-0.146,0.694-0.146
		c0.292,0,0.556,0.097,0.792,0.292c0.235,0.195,0.352,0.447,0.352,0.756c0,0.617-0.211,1.186-0.632,1.705
		c-2.226,2.728-5.286,4.093-9.185,4.093c-1.948,0-3.662-0.271-5.141-0.816c-1.478-0.544-2.707-1.332-3.69-2.364
		c-0.983-1.031-1.721-2.282-2.217-3.752c-0.496-1.469-0.742-3.13-0.742-4.982c0-4.303,0.995-7.568,2.984-9.793
		c1.988-2.225,4.892-3.338,8.708-3.338c1.511,0,2.879,0.219,4.105,0.658s2.279,1.084,3.155,1.937
		c0.877,0.852,1.555,1.904,2.035,3.155c0.478,1.251,0.719,2.68,0.719,4.288c0,1.624-0.942,2.436-2.826,2.436H6.314
		c-0.016,0.13-0.029,0.288-0.037,0.475c-0.009,0.187-0.012,0.394-0.012,0.621c0,1.429,0.138,2.717,0.414,3.862
		c0.276,1.144,0.698,2.119,1.266,2.923c0.569,0.804,1.287,1.422,2.157,1.852c0.869,0.431,1.896,0.646,3.081,0.646
		c0.974,0,1.811-0.125,2.509-0.377s1.296-0.56,1.791-0.926c0.494-0.365,0.913-0.751,1.254-1.158c0.34-0.406,0.634-0.755,0.877-1.048
		L20.078,80.507z M12.234,63.746c-1.608,0-2.92,0.679-3.935,2.034c-1.015,1.356-1.629,3.471-1.84,6.347h9.332
		c0.584,0,1.011-0.106,1.278-0.317c0.269-0.211,0.402-0.593,0.402-1.145c0-1.12-0.142-2.111-0.425-2.972
		c-0.285-0.861-0.666-1.584-1.144-2.169c-0.48-0.585-1.036-1.026-1.67-1.327S12.931,63.746,12.234,63.746z"/>
	<path fill="#FFFFFF" d="M43.173,82.091l-0.145-0.049c-1.089,1.657-2.339,2.863-3.752,3.618c-1.413,0.755-3.094,1.133-5.043,1.133
		c-1.235,0-2.323-0.158-3.265-0.475c-0.942-0.316-1.73-0.767-2.364-1.352c-0.632-0.585-1.108-1.291-1.425-2.119
		s-0.475-1.754-0.475-2.777c0-1.073,0.183-2.132,0.549-3.179c0.365-1.048,1.018-1.985,1.96-2.814
		c0.942-0.828,2.226-1.494,3.85-1.998c1.624-0.503,3.694-0.755,6.212-0.755h3.653v-1.389c0-1.136-0.097-2.099-0.292-2.887
		s-0.492-1.425-0.889-1.913c-0.398-0.487-0.914-0.841-1.546-1.059c-0.634-0.219-1.389-0.329-2.265-0.329
		c-1.658,0-3.119,0.698-4.386,2.095c-1.073,1.169-2.088,1.754-3.046,1.754c-0.568,0-1.002-0.162-1.303-0.487
		c-0.301-0.325-0.45-0.731-0.45-1.218c0-0.634,0.301-1.206,0.901-1.718c0.602-0.511,1.385-0.946,2.351-1.303
		c0.967-0.357,2.056-0.634,3.265-0.828c1.21-0.195,2.433-0.293,3.667-0.293c1.803,0,3.297,0.187,4.482,0.56
		c1.186,0.374,2.132,0.934,2.839,1.681c0.706,0.748,1.202,1.685,1.486,2.814c0.283,1.129,0.425,2.457,0.425,3.983v13.667
		c0,0.796-0.138,1.385-0.414,1.767c-0.276,0.381-0.788,0.572-1.535,0.572c-1.089,0-1.868-0.369-2.339-1.108
		C43.409,84.945,43.173,83.747,43.173,82.091z M42.979,73.418H40.08c-5.458,0-8.186,1.986-8.186,5.958
		c0,2.736,1.445,4.103,4.336,4.103c0.634,0,1.34-0.122,2.12-0.366c0.779-0.245,1.514-0.611,2.204-1.099
		c0.691-0.489,1.268-1.099,1.73-1.832c0.464-0.733,0.695-1.588,0.695-2.564C42.979,77.618,42.979,73.418,42.979,73.418z"/>
	<path fill="#FFFFFF" d="M62.418,58.192v3.557h5.555c0.584,0,1.02,0.106,1.303,0.317c0.285,0.211,0.427,0.471,0.427,0.78
		c0,0.341-0.158,0.641-0.475,0.901s-0.735,0.39-1.254,0.39h-5.555V80.07c0,0.779,0.082,1.458,0.244,2.034
		c0.163,0.577,0.379,1.048,0.646,1.414c0.269,0.365,0.585,0.638,0.951,0.816c0.365,0.179,0.751,0.268,1.158,0.268
		c0.649,0,1.197-0.117,1.643-0.353c0.448-0.235,0.825-0.524,1.133-0.865c0.31-0.341,0.574-0.719,0.792-1.133
		c0.219-0.414,0.434-0.792,0.646-1.133c0.211-0.341,0.443-0.629,0.694-0.865c0.252-0.235,0.565-0.354,0.939-0.354
		c0.389,0,0.701,0.11,0.938,0.329c0.235,0.219,0.354,0.516,0.354,0.89c0,0.26-0.082,0.585-0.245,0.974
		c-0.161,0.39-0.333,0.69-0.511,0.902c-0.845,1.266-1.872,2.216-3.083,2.85c-1.209,0.633-2.505,0.95-3.885,0.95
		c-1.478,0-2.704-0.191-3.678-0.572c-0.974-0.381-1.755-0.918-2.339-1.608c-0.585-0.69-0.995-1.523-1.231-2.497
		c-0.235-0.974-0.352-2.046-0.352-3.215V64.136h-2.729c-0.584,0-0.999-0.081-1.243-0.244c-0.244-0.162-0.365-0.431-0.365-0.804
		c0-0.341,0.2-0.617,0.597-0.828c0.398-0.211,0.901-0.479,1.51-0.804c0.61-0.325,1.271-0.78,1.987-1.365
		c0.715-0.585,1.388-1.421,2.022-2.509c0.227-0.39,0.418-0.719,0.572-0.987c0.154-0.268,0.304-0.487,0.45-0.658
		c0.147-0.17,0.301-0.292,0.464-0.365c0.161-0.073,0.357-0.109,0.584-0.109c0.568,0,0.933,0.199,1.096,0.596
		C62.337,56.458,62.418,57.169,62.418,58.192z"/>
	<path fill="#FFFFFF" d="M83.662,58.192v3.557h5.555c0.584,0,1.02,0.106,1.303,0.317c0.285,0.211,0.427,0.471,0.427,0.78
		c0,0.341-0.158,0.641-0.475,0.901s-0.735,0.39-1.254,0.39h-5.555V80.07c0,0.779,0.082,1.458,0.244,2.034
		c0.163,0.577,0.379,1.048,0.646,1.414c0.269,0.365,0.585,0.638,0.951,0.816c0.365,0.179,0.751,0.268,1.158,0.268
		c0.649,0,1.197-0.117,1.643-0.353c0.448-0.235,0.825-0.524,1.133-0.865c0.31-0.341,0.574-0.719,0.792-1.133
		c0.219-0.414,0.434-0.792,0.646-1.133c0.211-0.341,0.443-0.629,0.694-0.865c0.252-0.235,0.565-0.354,0.939-0.354
		c0.389,0,0.701,0.11,0.938,0.329c0.235,0.219,0.354,0.516,0.354,0.89c0,0.26-0.082,0.585-0.245,0.974
		c-0.161,0.39-0.333,0.69-0.511,0.902c-0.845,1.266-1.872,2.216-3.083,2.85c-1.209,0.633-2.505,0.95-3.885,0.95
		c-1.478,0-2.704-0.191-3.678-0.572s-1.755-0.918-2.339-1.608c-0.585-0.69-0.995-1.523-1.231-2.497
		c-0.235-0.974-0.352-2.046-0.352-3.215V64.136h-2.729c-0.584,0-0.999-0.081-1.243-0.244c-0.244-0.162-0.365-0.431-0.365-0.804
		c0-0.341,0.2-0.617,0.597-0.828c0.398-0.211,0.901-0.479,1.51-0.804c0.61-0.325,1.271-0.78,1.987-1.365
		c0.715-0.585,1.388-1.421,2.022-2.509c0.227-0.39,0.418-0.719,0.572-0.987s0.304-0.487,0.45-0.658
		c0.147-0.17,0.301-0.292,0.464-0.365c0.161-0.073,0.357-0.109,0.584-0.109c0.568,0,0.933,0.199,1.096,0.596
		C83.581,56.458,83.662,57.169,83.662,58.192z"/>
	<path fill="#FFFFFF" d="M98.841,57.607c-0.602-0.601-0.901-1.332-0.901-2.193c0-0.406,0.081-0.8,0.244-1.181
		c0.161-0.381,0.381-0.711,0.657-0.987s0.6-0.5,0.974-0.671c0.374-0.17,0.772-0.255,1.194-0.255c0.405,0,0.8,0.085,1.181,0.255
		c0.381,0.171,0.71,0.395,0.986,0.671c0.277,0.276,0.5,0.605,0.671,0.987c0.17,0.381,0.255,0.775,0.255,1.181
		c0,0.423-0.081,0.82-0.244,1.194c-0.161,0.374-0.386,0.703-0.669,0.987c-0.285,0.285-0.613,0.508-0.987,0.671
		c-0.373,0.162-0.772,0.244-1.193,0.244C100.164,58.509,99.441,58.208,98.841,57.607z M103.713,65.135v18.271
		c0,0.715-0.057,1.291-0.172,1.73c-0.113,0.439-0.296,0.78-0.547,1.023c-0.252,0.244-0.581,0.41-0.987,0.499
		c-0.405,0.09-0.901,0.134-1.485,0.134c-0.781,0-1.309-0.191-1.585-0.572s-0.414-0.971-0.414-1.767V64.087
		c0-0.795,0.138-1.384,0.414-1.766s0.804-0.573,1.585-0.573c1.087,0,1.891,0.272,2.411,0.817
		C103.454,63.109,103.713,63.965,103.713,65.135z"/>
	<path fill="#FFFFFF" d="M129.657,80.507c0.147-0.178,0.329-0.316,0.549-0.414c0.219-0.098,0.45-0.146,0.694-0.146
		c0.292,0,0.556,0.097,0.792,0.292c0.235,0.195,0.352,0.447,0.352,0.756c0,0.617-0.211,1.186-0.632,1.705
		c-2.226,2.728-5.286,4.093-9.185,4.093c-1.948,0-3.662-0.271-5.141-0.816c-1.478-0.544-2.707-1.332-3.69-2.364
		c-0.983-1.031-1.721-2.282-2.217-3.752c-0.496-1.469-0.742-3.13-0.742-4.982c0-4.303,0.995-7.568,2.984-9.793
		c1.988-2.225,4.892-3.338,8.708-3.338c1.511,0,2.879,0.219,4.105,0.658c1.227,0.439,2.279,1.084,3.155,1.937
		c0.877,0.852,1.555,1.904,2.035,3.155c0.478,1.251,0.719,2.68,0.719,4.288c0,1.624-0.942,2.436-2.826,2.436h-13.424
		c-0.016,0.13-0.029,0.288-0.037,0.475c-0.009,0.187-0.012,0.394-0.012,0.621c0,1.429,0.138,2.717,0.414,3.862
		c0.276,1.144,0.698,2.119,1.266,2.923c0.569,0.804,1.287,1.422,2.157,1.852c0.869,0.431,1.896,0.646,3.081,0.646
		c0.974,0,1.811-0.125,2.509-0.377c0.698-0.252,1.296-0.56,1.791-0.926c0.494-0.365,0.913-0.751,1.254-1.158
		c0.34-0.406,0.634-0.755,0.877-1.048L129.657,80.507z M121.813,63.746c-1.608,0-2.92,0.679-3.935,2.034
		c-1.015,1.356-1.629,3.471-1.84,6.347h9.332c0.584,0,1.011-0.106,1.278-0.317c0.269-0.211,0.402-0.593,0.402-1.145
		c0-1.12-0.142-2.111-0.425-2.972c-0.285-0.861-0.666-1.584-1.144-2.169c-0.48-0.585-1.036-1.026-1.67-1.327
		S122.51,63.746,121.813,63.746z"/>
</g>
<g>
	<path fill="#FFFFFF" d="M17.608,106.78v3.868h0.028c0.488-0.883,1.237-1.324,2.248-1.324c0.329,0,0.641,0.044,0.937,0.134
		s0.557,0.253,0.782,0.493c0.226,0.239,0.406,0.572,0.542,0.997s0.207,0.971,0.211,1.638c0,0.644-0.079,1.213-0.236,1.709
		s-0.384,0.911-0.68,1.247c-0.296,0.335-0.656,0.59-1.081,0.764s-0.906,0.261-1.441,0.261c-0.663,0-1.282-0.11-1.86-0.331
		c-0.15-0.057-0.284-0.119-0.401-0.187c-0.118-0.068-0.216-0.151-0.296-0.25s-0.142-0.213-0.187-0.345
		c-0.045-0.131-0.067-0.289-0.067-0.472v-8.701c0-0.24,0.04-0.412,0.12-0.518c0.08-0.105,0.232-0.158,0.458-0.158
		c0.324,0,0.559,0.09,0.705,0.271C17.536,106.056,17.608,106.357,17.608,106.78z M17.594,111.918v3.308
		c0,0.104,0.03,0.201,0.092,0.293c0.061,0.092,0.148,0.173,0.261,0.244c0.112,0.07,0.251,0.125,0.416,0.166
		c0.164,0.04,0.35,0.06,0.557,0.06c1.25,0,1.874-1.098,1.874-3.294c0-0.508-0.039-0.919-0.116-1.234s-0.183-0.56-0.317-0.734
		c-0.134-0.174-0.292-0.292-0.472-0.353c-0.181-0.061-0.375-0.092-0.582-0.092c-0.188,0-0.383,0.048-0.584,0.145
		c-0.202,0.097-0.387,0.222-0.553,0.377c-0.167,0.155-0.304,0.331-0.412,0.525C17.648,111.524,17.594,111.721,17.594,111.918z"/>
	<path fill="#FFFFFF" d="M29.396,114.748c0.041-0.052,0.094-0.091,0.158-0.12c0.063-0.028,0.13-0.042,0.201-0.042
		c0.084,0,0.16,0.028,0.229,0.084c0.068,0.057,0.102,0.129,0.102,0.219c0,0.178-0.061,0.343-0.183,0.493
		c-0.644,0.789-1.529,1.184-2.656,1.184c-0.564,0-1.06-0.079-1.487-0.236c-0.427-0.158-0.783-0.385-1.067-0.684
		s-0.498-0.66-0.641-1.085c-0.144-0.425-0.215-0.905-0.215-1.441c0-1.245,0.287-2.189,0.862-2.833
		c0.576-0.643,1.415-0.965,2.52-0.965c0.437,0,0.832,0.063,1.187,0.19s0.659,0.313,0.913,0.56s0.449,0.551,0.588,0.913
		s0.208,0.775,0.208,1.24c0,0.47-0.272,0.705-0.817,0.705h-3.882c-0.005,0.038-0.009,0.083-0.011,0.138
		c-0.003,0.054-0.004,0.114-0.004,0.18c0,0.413,0.04,0.786,0.12,1.117s0.202,0.613,0.366,0.845c0.164,0.233,0.372,0.411,0.624,0.536
		c0.251,0.125,0.548,0.187,0.891,0.187c0.282,0,0.524-0.036,0.726-0.109s0.375-0.162,0.519-0.268
		c0.143-0.105,0.264-0.217,0.362-0.334c0.099-0.117,0.184-0.218,0.254-0.303L29.396,114.748z M27.127,109.901
		c-0.465,0-0.845,0.196-1.138,0.588c-0.294,0.392-0.472,1.004-0.532,1.835h2.698c0.169,0,0.293-0.03,0.37-0.091
		s0.116-0.171,0.116-0.331c0-0.324-0.041-0.611-0.123-0.86c-0.082-0.249-0.192-0.458-0.331-0.627s-0.3-0.297-0.482-0.384
		C27.521,109.945,27.329,109.901,27.127,109.901z"/>
	<path fill="#FFFFFF" d="M35.73,114.805c-0.024-0.292-0.119-0.527-0.286-0.708c-0.166-0.181-0.429-0.344-0.785-0.489l-0.824-0.303
		l-0.557-0.19c-0.24-0.089-0.467-0.185-0.68-0.286c-0.214-0.101-0.402-0.222-0.564-0.363c-0.162-0.141-0.291-0.31-0.387-0.507
		c-0.097-0.197-0.145-0.437-0.145-0.719c0-0.272,0.047-0.509,0.141-0.711s0.219-0.375,0.373-0.518
		c0.155-0.143,0.329-0.259,0.521-0.349c0.192-0.089,0.389-0.158,0.589-0.208c0.199-0.05,0.391-0.083,0.574-0.103
		c0.183-0.019,0.34-0.028,0.472-0.028c0.423,0,0.797,0.036,1.124,0.109c0.326,0.073,0.603,0.17,0.828,0.292s0.396,0.263,0.511,0.423
		c0.114,0.16,0.172,0.327,0.172,0.5c0,0.155-0.056,0.281-0.169,0.377c-0.112,0.097-0.244,0.145-0.395,0.145
		c-0.183,0-0.338-0.043-0.465-0.13s-0.23-0.217-0.31-0.391c-0.24-0.498-0.667-0.747-1.283-0.747c-0.38,0-0.685,0.094-0.912,0.282
		s-0.342,0.472-0.342,0.853c0,0.127,0.027,0.241,0.081,0.342s0.122,0.192,0.204,0.274c0.083,0.083,0.176,0.155,0.278,0.219
		c0.104,0.063,0.207,0.116,0.311,0.158l0.401,0.169l0.479,0.169c0.131,0.047,0.261,0.09,0.388,0.13
		c0.126,0.04,0.252,0.083,0.377,0.13c0.124,0.047,0.246,0.1,0.366,0.159c0.119,0.059,0.24,0.125,0.362,0.201
		c0.137,0.08,0.266,0.167,0.388,0.261s0.23,0.197,0.324,0.31s0.169,0.239,0.226,0.38c0.057,0.141,0.084,0.301,0.084,0.479
		c0,0.319-0.072,0.612-0.218,0.877c-0.146,0.266-0.351,0.492-0.613,0.68s-0.578,0.333-0.944,0.437
		c-0.366,0.103-0.771,0.155-1.212,0.155c-0.352,0-0.696-0.032-1.032-0.095s-0.636-0.156-0.901-0.278
		c-0.266-0.122-0.479-0.27-0.642-0.444s-0.243-0.374-0.243-0.599c0-0.075,0.017-0.146,0.05-0.211s0.075-0.122,0.127-0.169
		s0.111-0.083,0.18-0.109c0.067-0.026,0.138-0.039,0.208-0.039c0.371,0,0.636,0.172,0.796,0.515
		c0.047,0.099,0.104,0.198,0.173,0.299c0.067,0.101,0.158,0.193,0.271,0.275s0.253,0.149,0.42,0.201
		c0.166,0.052,0.374,0.078,0.623,0.078c0.212,0,0.407-0.023,0.589-0.071c0.181-0.047,0.338-0.12,0.472-0.218s0.238-0.222,0.313-0.37
		S35.73,115.007,35.73,114.805z"/>
	<path fill="#FFFFFF" d="M40.894,108.295v1.029H42.5c0.169,0,0.294,0.03,0.377,0.091c0.082,0.061,0.123,0.136,0.123,0.226
		c0,0.099-0.046,0.186-0.138,0.261s-0.213,0.113-0.362,0.113h-1.606v4.607c0,0.226,0.023,0.422,0.07,0.588
		c0.047,0.167,0.109,0.303,0.187,0.409c0.077,0.106,0.169,0.185,0.274,0.236c0.106,0.052,0.218,0.077,0.335,0.077
		c0.188,0,0.347-0.034,0.476-0.102s0.238-0.151,0.327-0.25c0.09-0.099,0.166-0.208,0.229-0.328s0.126-0.229,0.187-0.328
		c0.062-0.099,0.128-0.182,0.201-0.25c0.072-0.068,0.163-0.103,0.271-0.103c0.112,0,0.203,0.032,0.271,0.095
		s0.103,0.149,0.103,0.257c0,0.075-0.023,0.169-0.07,0.282s-0.097,0.2-0.148,0.261c-0.244,0.366-0.541,0.641-0.891,0.824
		c-0.351,0.183-0.725,0.275-1.124,0.275c-0.428,0-0.782-0.055-1.064-0.166c-0.281-0.11-0.507-0.265-0.676-0.465
		s-0.288-0.44-0.356-0.722c-0.067-0.282-0.102-0.592-0.102-0.93v-4.27h-0.789c-0.169,0-0.289-0.023-0.359-0.071
		c-0.07-0.047-0.105-0.124-0.105-0.232c0-0.099,0.058-0.178,0.172-0.239c0.115-0.061,0.261-0.139,0.438-0.233
		c0.176-0.094,0.367-0.225,0.574-0.395c0.206-0.169,0.401-0.411,0.585-0.726c0.065-0.113,0.12-0.208,0.165-0.285
		c0.045-0.078,0.088-0.141,0.131-0.19c0.042-0.049,0.087-0.084,0.134-0.105c0.047-0.021,0.103-0.032,0.169-0.032
		c0.164,0,0.27,0.058,0.316,0.172C40.87,107.793,40.894,107.999,40.894,108.295z"/>
	<path fill="#FFFFFF" d="M54.38,114.748c0.107-0.108,0.228-0.162,0.358-0.162c0.085,0,0.162,0.028,0.233,0.084
		c0.07,0.057,0.105,0.129,0.105,0.219c0,0.174-0.063,0.338-0.19,0.493c-0.644,0.789-1.515,1.184-2.614,1.184
		c-0.597,0-1.103-0.089-1.518-0.268c-0.416-0.179-0.753-0.429-1.012-0.75c-0.258-0.322-0.445-0.704-0.56-1.145
		c-0.115-0.441-0.173-0.923-0.173-1.444c0-0.667,0.088-1.232,0.264-1.694c0.177-0.463,0.42-0.837,0.729-1.124
		c0.311-0.286,0.673-0.494,1.089-0.624c0.416-0.129,0.863-0.193,1.342-0.193c0.329,0,0.644,0.042,0.944,0.126
		s0.564,0.199,0.793,0.342c0.228,0.144,0.408,0.308,0.542,0.493s0.201,0.379,0.201,0.582c0,0.084-0.018,0.162-0.053,0.232
		s-0.081,0.13-0.138,0.18s-0.121,0.087-0.193,0.113c-0.073,0.026-0.147,0.039-0.223,0.039c-0.211,0-0.378-0.05-0.5-0.151
		s-0.216-0.252-0.281-0.455c-0.052-0.141-0.108-0.268-0.17-0.38c-0.061-0.113-0.136-0.21-0.225-0.292
		c-0.09-0.082-0.193-0.145-0.311-0.187c-0.117-0.042-0.256-0.063-0.416-0.063c-0.296,0-0.558,0.048-0.785,0.145
		s-0.419,0.262-0.574,0.497s-0.272,0.548-0.353,0.94s-0.119,0.884-0.119,1.476c0,0.493,0.032,0.927,0.099,1.3
		c0.065,0.374,0.172,0.684,0.32,0.93c0.147,0.247,0.341,0.432,0.577,0.557c0.237,0.125,0.525,0.187,0.863,0.187
		c0.226,0,0.425-0.024,0.599-0.074s0.329-0.119,0.466-0.208c0.136-0.089,0.259-0.191,0.369-0.307c0.11-0.115,0.22-0.238,0.328-0.37
		L54.38,114.748z"/>
	<path fill="#FFFFFF" d="M60.749,115.206l-0.042-0.014c-0.315,0.479-0.677,0.828-1.085,1.046c-0.409,0.218-0.896,0.328-1.459,0.328
		c-0.356,0-0.672-0.046-0.944-0.137c-0.272-0.092-0.5-0.222-0.683-0.391c-0.184-0.169-0.321-0.374-0.412-0.613
		c-0.092-0.239-0.138-0.507-0.138-0.803c0-0.31,0.053-0.616,0.158-0.919s0.295-0.574,0.567-0.813
		c0.272-0.24,0.644-0.432,1.113-0.578s1.068-0.219,1.797-0.219h1.057v-0.401c0-0.329-0.028-0.607-0.085-0.835
		c-0.056-0.228-0.142-0.412-0.257-0.553s-0.265-0.243-0.447-0.306c-0.184-0.063-0.401-0.095-0.655-0.095
		c-0.479,0-0.902,0.202-1.269,0.606c-0.31,0.338-0.604,0.507-0.881,0.507c-0.164,0-0.29-0.047-0.377-0.141
		c-0.087-0.094-0.13-0.211-0.13-0.352c0-0.184,0.087-0.349,0.261-0.497s0.4-0.273,0.68-0.377c0.279-0.103,0.594-0.183,0.944-0.239
		c0.35-0.057,0.703-0.084,1.061-0.084c0.521,0,0.953,0.054,1.296,0.162c0.343,0.108,0.616,0.271,0.821,0.486
		c0.204,0.216,0.348,0.487,0.43,0.814c0.082,0.326,0.123,0.71,0.123,1.152v3.953c0,0.23-0.04,0.4-0.12,0.511
		c-0.079,0.11-0.228,0.166-0.443,0.166c-0.314,0-0.54-0.107-0.677-0.321C60.817,116.032,60.749,115.685,60.749,115.206z
		 M60.692,112.698h-0.838c-1.578,0-2.367,0.575-2.367,1.724c0,0.791,0.418,1.187,1.254,1.187c0.183,0,0.388-0.036,0.613-0.106
		c0.225-0.071,0.438-0.177,0.637-0.318c0.2-0.141,0.367-0.318,0.501-0.53s0.2-0.459,0.2-0.742V112.698z"/>
	<path fill="#FFFFFF" d="M63.589,109.845c0-0.244,0.149-0.375,0.45-0.395h0.817c0.019-0.465,0.064-0.868,0.138-1.208
		c0.072-0.341,0.162-0.634,0.268-0.881s0.226-0.453,0.359-0.62c0.134-0.167,0.269-0.307,0.405-0.419
		c0.582-0.479,1.279-0.719,2.093-0.719c0.206,0,0.396,0.022,0.57,0.067s0.323,0.104,0.447,0.176s0.222,0.156,0.293,0.25
		c0.07,0.094,0.105,0.192,0.105,0.296c0,0.155-0.051,0.278-0.151,0.37c-0.102,0.092-0.243,0.138-0.427,0.138
		c-0.202,0-0.418-0.141-0.648-0.423c-0.084-0.103-0.187-0.18-0.306-0.229c-0.12-0.049-0.248-0.074-0.385-0.074
		c-0.159,0-0.315,0.03-0.468,0.091c-0.153,0.061-0.289,0.169-0.409,0.324c-0.12,0.155-0.216,0.365-0.289,0.63
		c-0.072,0.266-0.109,0.6-0.109,1.004v1.226h1.606c0.17,0,0.295,0.031,0.377,0.092c0.083,0.061,0.124,0.136,0.124,0.226
		c0,0.103-0.046,0.192-0.138,0.268s-0.213,0.113-0.363,0.113h-1.606v5.439c0,0.207-0.016,0.374-0.049,0.5s-0.086,0.226-0.158,0.296
		c-0.073,0.07-0.168,0.119-0.286,0.145c-0.117,0.026-0.261,0.039-0.43,0.039c-0.216,0-0.366-0.055-0.45-0.166
		c-0.085-0.11-0.127-0.281-0.127-0.511v-5.742h-0.789C63.743,110.148,63.589,110.047,63.589,109.845z"/>
	<path fill="#FFFFFF" d="M74.614,114.748c0.043-0.052,0.096-0.091,0.159-0.12s0.13-0.042,0.2-0.042c0.085,0,0.161,0.028,0.229,0.084
		c0.067,0.057,0.102,0.129,0.102,0.219c0,0.178-0.061,0.343-0.183,0.493c-0.644,0.789-1.529,1.184-2.656,1.184
		c-0.563,0-1.06-0.079-1.486-0.236c-0.428-0.158-0.784-0.385-1.068-0.684s-0.497-0.66-0.641-1.085s-0.215-0.905-0.215-1.441
		c0-1.245,0.287-2.189,0.863-2.833c0.575-0.643,1.415-0.965,2.519-0.965c0.437,0,0.832,0.063,1.188,0.19
		c0.354,0.127,0.658,0.313,0.912,0.56s0.449,0.551,0.588,0.913s0.208,0.775,0.208,1.24c0,0.47-0.272,0.705-0.817,0.705h-3.882
		c-0.005,0.038-0.008,0.083-0.011,0.138c-0.002,0.054-0.003,0.114-0.003,0.18c0,0.413,0.039,0.786,0.119,1.117
		s0.202,0.613,0.366,0.845c0.165,0.233,0.373,0.411,0.624,0.536s0.548,0.187,0.892,0.187c0.281,0,0.523-0.036,0.726-0.109
		c0.201-0.073,0.374-0.162,0.518-0.268c0.144-0.105,0.264-0.217,0.362-0.334c0.1-0.117,0.184-0.218,0.254-0.303L74.614,114.748z
		 M72.346,109.901c-0.465,0-0.844,0.196-1.138,0.588s-0.471,1.004-0.532,1.835h2.699c0.169,0,0.292-0.03,0.369-0.091
		c0.078-0.061,0.116-0.171,0.116-0.331c0-0.324-0.041-0.611-0.123-0.86s-0.192-0.458-0.331-0.627s-0.3-0.297-0.482-0.384
		C72.74,109.945,72.548,109.901,72.346,109.901z"/>
	<path fill="#FFFFFF" d="M83.309,108.295v1.029h1.606c0.169,0,0.294,0.03,0.377,0.091c0.082,0.061,0.123,0.136,0.123,0.226
		c0,0.099-0.046,0.186-0.138,0.261s-0.213,0.113-0.362,0.113h-1.606v4.607c0,0.226,0.023,0.422,0.07,0.588
		c0.047,0.167,0.109,0.303,0.187,0.409c0.077,0.106,0.169,0.185,0.274,0.236c0.106,0.052,0.218,0.077,0.335,0.077
		c0.188,0,0.347-0.034,0.476-0.102s0.238-0.151,0.327-0.25c0.09-0.099,0.166-0.208,0.229-0.328s0.126-0.229,0.187-0.328
		c0.062-0.099,0.128-0.182,0.201-0.25c0.072-0.068,0.163-0.103,0.271-0.103c0.112,0,0.203,0.032,0.271,0.095
		s0.103,0.149,0.103,0.257c0,0.075-0.023,0.169-0.07,0.282s-0.097,0.2-0.148,0.261c-0.244,0.366-0.541,0.641-0.891,0.824
		c-0.351,0.183-0.725,0.275-1.124,0.275c-0.428,0-0.782-0.055-1.064-0.166c-0.281-0.11-0.507-0.265-0.676-0.465
		s-0.288-0.44-0.356-0.722c-0.067-0.282-0.102-0.592-0.102-0.93v-4.27H81.02c-0.169,0-0.289-0.023-0.359-0.071
		c-0.07-0.047-0.105-0.124-0.105-0.232c0-0.099,0.058-0.178,0.172-0.239c0.115-0.061,0.261-0.139,0.438-0.233
		c0.176-0.094,0.367-0.225,0.574-0.395c0.206-0.169,0.401-0.411,0.585-0.726c0.065-0.113,0.12-0.208,0.165-0.285
		c0.045-0.078,0.088-0.141,0.131-0.19c0.042-0.049,0.087-0.084,0.134-0.105c0.047-0.021,0.103-0.032,0.169-0.032
		c0.164,0,0.27,0.058,0.316,0.172C83.284,107.793,83.309,107.999,83.309,108.295z"/>
	<path fill="#FFFFFF" d="M89.037,106.78v4.016h0.028c0.131-0.216,0.284-0.413,0.458-0.592c0.174-0.178,0.365-0.333,0.574-0.465
		s0.436-0.234,0.68-0.307s0.505-0.109,0.782-0.109c1.357,0,2.036,0.726,2.036,2.177v4.39c0,0.23-0.04,0.4-0.12,0.511
		s-0.232,0.166-0.458,0.166c-0.324,0-0.559-0.09-0.704-0.271s-0.219-0.485-0.219-0.914v-3.611c0-0.992-0.408-1.488-1.226-1.488
		c-0.184,0-0.382,0.047-0.596,0.141s-0.412,0.222-0.596,0.384c-0.183,0.163-0.335,0.353-0.457,0.571
		c-0.123,0.219-0.184,0.455-0.184,0.709v3.456c0,0.207-0.017,0.376-0.05,0.508c-0.032,0.131-0.085,0.235-0.158,0.31
		s-0.168,0.128-0.285,0.159c-0.117,0.031-0.261,0.046-0.43,0.046c-0.226,0-0.378-0.055-0.458-0.166s-0.12-0.281-0.12-0.511v-9.61
		c0-0.24,0.04-0.412,0.12-0.518c0.08-0.105,0.232-0.158,0.458-0.158c0.324,0,0.559,0.09,0.704,0.271
		C88.964,106.056,89.037,106.357,89.037,106.78z"/>
	<path fill="#FFFFFF" d="M101.028,114.748c0.043-0.052,0.096-0.091,0.159-0.12s0.13-0.042,0.2-0.042
		c0.085,0,0.161,0.028,0.229,0.084c0.067,0.057,0.102,0.129,0.102,0.219c0,0.178-0.061,0.343-0.183,0.493
		c-0.644,0.789-1.529,1.184-2.656,1.184c-0.563,0-1.06-0.079-1.486-0.236c-0.428-0.158-0.784-0.385-1.068-0.684
		s-0.497-0.66-0.641-1.085s-0.215-0.905-0.215-1.441c0-1.245,0.287-2.189,0.863-2.833c0.575-0.643,1.415-0.965,2.519-0.965
		c0.437,0,0.832,0.063,1.188,0.19c0.354,0.127,0.658,0.313,0.912,0.56s0.449,0.551,0.588,0.913s0.208,0.775,0.208,1.24
		c0,0.47-0.272,0.705-0.817,0.705h-3.882c-0.005,0.038-0.008,0.083-0.011,0.138c-0.002,0.054-0.003,0.114-0.003,0.18
		c0,0.413,0.039,0.786,0.119,1.117s0.202,0.613,0.366,0.845c0.165,0.233,0.373,0.411,0.624,0.536s0.548,0.187,0.892,0.187
		c0.281,0,0.523-0.036,0.726-0.109c0.201-0.073,0.374-0.162,0.518-0.268c0.144-0.105,0.264-0.217,0.362-0.334
		c0.1-0.117,0.184-0.218,0.254-0.303L101.028,114.748z M98.76,109.901c-0.465,0-0.844,0.196-1.138,0.588s-0.471,1.004-0.532,1.835
		h2.699c0.169,0,0.292-0.03,0.369-0.091c0.078-0.061,0.116-0.171,0.116-0.331c0-0.324-0.041-0.611-0.123-0.86
		s-0.192-0.458-0.331-0.627s-0.3-0.297-0.482-0.384C99.154,109.945,98.962,109.901,98.76,109.901z"/>
	<path fill="#FFFFFF" d="M111.645,115.381v-3.611c0-0.545-0.087-0.93-0.261-1.153s-0.437-0.335-0.789-0.335
		c-0.179,0-0.359,0.052-0.542,0.155c-0.184,0.104-0.35,0.24-0.497,0.409c-0.148,0.169-0.271,0.362-0.366,0.578
		c-0.097,0.216-0.145,0.438-0.145,0.663v3.456c0,0.207-0.017,0.377-0.05,0.512c-0.032,0.134-0.085,0.239-0.158,0.314
		s-0.167,0.127-0.282,0.155s-0.255,0.042-0.419,0.042c-0.216,0-0.366-0.055-0.451-0.166c-0.084-0.111-0.126-0.281-0.126-0.512
		v-4.119c0-0.545-0.088-0.93-0.261-1.153c-0.174-0.223-0.438-0.335-0.789-0.335c-0.184,0-0.367,0.046-0.55,0.138
		c-0.184,0.092-0.349,0.214-0.497,0.367c-0.147,0.153-0.268,0.329-0.359,0.529c-0.092,0.2-0.137,0.411-0.137,0.631v3.597
		c0,0.207-0.017,0.376-0.05,0.508c-0.033,0.131-0.085,0.236-0.155,0.313c-0.07,0.078-0.163,0.131-0.278,0.159
		s-0.257,0.042-0.426,0.042c-0.226,0-0.378-0.055-0.458-0.166s-0.12-0.281-0.12-0.511v-5.947c0-0.23,0.047-0.391,0.142-0.482
		c0.094-0.092,0.253-0.137,0.479-0.137c0.559,0,0.839,0.413,0.839,1.24v0.099h0.028c0.112-0.183,0.234-0.357,0.366-0.521
		c0.131-0.164,0.284-0.306,0.458-0.426s0.374-0.215,0.602-0.285c0.229-0.07,0.497-0.105,0.808-0.105c1.033,0,1.63,0.496,1.789,1.486
		h0.028c0.132-0.211,0.271-0.409,0.419-0.592c0.148-0.183,0.313-0.34,0.493-0.472c0.181-0.131,0.382-0.235,0.603-0.31
		c0.221-0.075,0.473-0.112,0.754-0.112c1.23,0,1.846,0.726,1.846,2.177v4.39c0,0.23-0.04,0.4-0.119,0.511
		c-0.08,0.11-0.232,0.166-0.458,0.166c-0.324,0-0.557-0.09-0.697-0.271C111.716,116.114,111.645,115.809,111.645,115.381z"/>
	<path fill="#FFFFFF" d="M120.565,114.748c0.043-0.052,0.096-0.091,0.159-0.12s0.13-0.042,0.2-0.042
		c0.085,0,0.161,0.028,0.229,0.084c0.067,0.057,0.102,0.129,0.102,0.219c0,0.178-0.061,0.343-0.183,0.493
		c-0.644,0.789-1.529,1.184-2.656,1.184c-0.563,0-1.06-0.079-1.486-0.236c-0.428-0.158-0.784-0.385-1.068-0.684
		s-0.497-0.66-0.641-1.085s-0.215-0.905-0.215-1.441c0-1.245,0.287-2.189,0.863-2.833c0.575-0.643,1.415-0.965,2.519-0.965
		c0.437,0,0.832,0.063,1.188,0.19c0.354,0.127,0.658,0.313,0.912,0.56s0.449,0.551,0.588,0.913s0.208,0.775,0.208,1.24
		c0,0.47-0.272,0.705-0.817,0.705h-3.882c-0.005,0.038-0.008,0.083-0.011,0.138c-0.002,0.054-0.003,0.114-0.003,0.18
		c0,0.413,0.039,0.786,0.119,1.117s0.202,0.613,0.366,0.845c0.165,0.233,0.373,0.411,0.624,0.536s0.548,0.187,0.892,0.187
		c0.281,0,0.523-0.036,0.726-0.109c0.201-0.073,0.374-0.162,0.518-0.268c0.144-0.105,0.264-0.217,0.362-0.334
		c0.1-0.117,0.184-0.218,0.254-0.303L120.565,114.748z M118.297,109.901c-0.465,0-0.844,0.196-1.138,0.588s-0.471,1.004-0.532,1.835
		h2.699c0.169,0,0.292-0.03,0.369-0.091c0.078-0.061,0.116-0.171,0.116-0.331c0-0.324-0.041-0.611-0.123-0.86
		s-0.192-0.458-0.331-0.627s-0.3-0.297-0.482-0.384C118.691,109.945,118.499,109.901,118.297,109.901z"/>
</g>
</svg>
