<?xml version="1.0" encoding="utf-8"?>
<!-- Generator: Adobe Illustrator 17.0.1, SVG Export Plug-In . SVG Version: 6.00 Build 0)  -->
<!DOCTYPE svg PUBLIC "-//W3C//DTD SVG 1.1//EN" "http://www.w3.org/Graphics/SVG/1.1/DTD/svg11.dtd">
<svg version="1.1" id="Layer_1" xmlns="http://www.w3.org/2000/svg" xmlns:xlink="http://www.w3.org/1999/xlink" x="0px" y="0px"
	 width="163px" height="66px" viewBox="0 0 163 66" enable-background="new 0 0 163 66" xml:space="preserve">
<g>
	<path fill="#FFFFFF" d="M44.389,46.146c-1.786,2.72-3.573,4.069-5.338,4.069c-0.705,0-1.661-0.227-2.908-0.663
		c-1.225-0.457-2.284-0.665-3.135-0.665c-0.831,0-1.827,0.229-2.949,0.686c-1.143,0.478-2.056,0.705-2.742,0.705
		c-2.139,0-4.195-1.808-6.251-5.379c-2.015-3.573-3.053-7.041-3.053-10.447c0-3.178,0.789-5.753,2.346-7.766
		c1.558-1.995,3.511-2.991,5.898-2.991c1.019,0,2.222,0.207,3.677,0.624c1.432,0.415,2.387,0.622,2.866,0.622
		c0.603,0,1.599-0.229,2.97-0.705c1.37-0.457,2.575-0.707,3.592-0.707c1.661,0,3.135,0.457,4.424,1.35
		c0.727,0.498,1.453,1.205,2.16,2.077c-1.081,0.913-1.87,1.723-2.368,2.451c-0.893,1.287-1.35,2.72-1.35,4.298
		c0,1.703,0.478,3.261,1.434,4.632c0.955,1.37,2.056,2.242,3.281,2.616C46.424,42.595,45.593,44.339,44.389,46.146z M38.532,19.418
		c-0.415,1.039-1.06,1.994-1.932,2.866c-0.748,0.748-1.494,1.246-2.242,1.496c-0.478,0.145-1.184,0.269-2.16,0.353
		c0.041-2.056,0.581-3.842,1.62-5.338c1.039-1.494,2.782-2.513,5.193-3.073c0.041,0.186,0.083,0.333,0.103,0.457
		c0,0.145,0.021,0.269,0.021,0.415C39.135,17.445,38.927,18.4,38.532,19.418z"/>
</g>
<g>
	<path fill="#FFFFFF" d="M64.476,29.806l-0.672,1.788c-0.106,0.277-0.227,0.462-0.362,0.556c-0.134,0.094-0.281,0.141-0.438,0.141
		c-0.124,0-0.213-0.034-0.269-0.103c-0.055-0.068-0.083-0.156-0.083-0.263c0-0.089,0.021-0.194,0.064-0.313l3.086-8.306
		c0.039-0.102,0.123-0.18,0.253-0.233s0.285-0.08,0.464-0.08c0.192,0,0.363,0.031,0.512,0.093s0.246,0.148,0.288,0.259l3.003,8.318
		c0.017,0.073,0.025,0.137,0.025,0.192c0,0.124-0.041,0.228-0.122,0.311c-0.081,0.083-0.211,0.125-0.391,0.125
		c-0.486,0-0.813-0.232-0.979-0.696l-0.698-1.788H64.476z M67.96,29.114l-1.582-4.572h-0.083l-1.614,4.572H67.96z"/>
	<path fill="#FFFFFF" d="M76.854,25.707c0.277,0,0.416,0.101,0.416,0.301c0,0.145-0.021,0.262-0.064,0.352l-2.19,5.603
		c-0.085,0.218-0.339,0.327-0.762,0.327c-0.38,0-0.61-0.109-0.691-0.327l-2.152-5.603c-0.047-0.103-0.07-0.203-0.07-0.301
		c0-0.235,0.162-0.353,0.487-0.353c0.23,0,0.439,0.072,0.627,0.215s0.337,0.364,0.448,0.663l1.588,4.418h0.064l0.89-2.369
		c0.196-0.525,0.42-1.229,0.672-2.113c0.073-0.26,0.16-0.461,0.263-0.602C76.483,25.778,76.641,25.707,76.854,25.707z"/>
	<path fill="#FFFFFF" d="M82.56,31.054l-0.038-0.013c-0.286,0.435-0.615,0.752-0.986,0.951c-0.371,0.199-0.813,0.298-1.326,0.298
		c-0.324,0-0.61-0.042-0.858-0.125c-0.248-0.083-0.455-0.202-0.621-0.355c-0.167-0.153-0.292-0.339-0.375-0.557
		c-0.083-0.217-0.125-0.461-0.125-0.73c0-0.282,0.048-0.56,0.144-0.835s0.268-0.522,0.516-0.74s0.585-0.393,1.012-0.525
		s0.971-0.199,1.633-0.199h0.961v-0.365c0-0.299-0.025-0.552-0.077-0.759s-0.13-0.375-0.233-0.503
		c-0.105-0.128-0.241-0.221-0.407-0.278c-0.166-0.058-0.365-0.086-0.595-0.086c-0.436,0-0.82,0.184-1.153,0.551
		c-0.282,0.307-0.548,0.461-0.8,0.461c-0.149,0-0.264-0.042-0.343-0.128s-0.118-0.192-0.118-0.32c0-0.167,0.079-0.317,0.237-0.452
		c0.158-0.134,0.364-0.249,0.618-0.342c0.254-0.094,0.54-0.167,0.858-0.218c0.318-0.051,0.639-0.077,0.964-0.077
		c0.474,0,0.867,0.049,1.178,0.147s0.56,0.246,0.745,0.442s0.316,0.443,0.391,0.74c0.076,0.296,0.113,0.646,0.113,1.047v3.592
		c0,0.209-0.037,0.364-0.109,0.464c-0.072,0.1-0.207,0.15-0.404,0.15c-0.285,0-0.49-0.097-0.613-0.292
		C82.621,31.805,82.56,31.49,82.56,31.054z M82.509,28.774h-0.762c-1.435,0-2.152,0.522-2.152,1.566c0,0.719,0.38,1.078,1.14,1.078
		c0.167,0,0.352-0.032,0.557-0.096c0.205-0.064,0.398-0.16,0.58-0.289c0.181-0.128,0.333-0.289,0.455-0.481
		c0.121-0.193,0.183-0.417,0.183-0.674V28.774z"/>
	<path fill="#FFFFFF" d="M86.024,24.619c-0.158-0.158-0.236-0.35-0.236-0.576c0-0.107,0.021-0.21,0.063-0.311
		c0.043-0.101,0.101-0.187,0.173-0.26c0.072-0.072,0.158-0.131,0.256-0.176c0.099-0.045,0.203-0.067,0.314-0.067
		c0.106,0,0.21,0.022,0.311,0.067c0.1,0.045,0.187,0.104,0.259,0.176c0.073,0.073,0.132,0.159,0.177,0.26
		c0.045,0.1,0.067,0.204,0.067,0.311c0,0.111-0.021,0.215-0.064,0.313s-0.102,0.185-0.176,0.259
		c-0.075,0.075-0.161,0.134-0.26,0.176s-0.203,0.064-0.313,0.064C86.372,24.855,86.183,24.776,86.024,24.619z M87.306,26.597V31.4
		c0,0.188-0.016,0.339-0.045,0.455c-0.03,0.115-0.078,0.205-0.145,0.269s-0.152,0.108-0.259,0.131
		c-0.107,0.023-0.237,0.035-0.391,0.035c-0.205,0-0.344-0.05-0.417-0.15c-0.072-0.101-0.108-0.255-0.108-0.464v-5.354
		c0-0.209,0.036-0.364,0.108-0.464c0.073-0.101,0.212-0.151,0.417-0.151c0.285,0,0.497,0.072,0.634,0.215
		S87.306,26.29,87.306,26.597z"/>
	<path fill="#FFFFFF" d="M90.897,23.396V31.4c0,0.188-0.016,0.339-0.045,0.455c-0.03,0.115-0.078,0.205-0.145,0.269
		s-0.152,0.108-0.259,0.131c-0.107,0.023-0.237,0.035-0.391,0.035c-0.205,0-0.344-0.05-0.417-0.15
		c-0.072-0.101-0.108-0.255-0.108-0.464v-8.734c0-0.218,0.036-0.375,0.108-0.471c0.073-0.096,0.212-0.144,0.417-0.144
		c0.294,0,0.508,0.082,0.64,0.247C90.831,22.737,90.897,23.011,90.897,23.396z"/>
	<path fill="#FFFFFF" d="M96.904,31.054l-0.039-0.013c-0.286,0.435-0.614,0.752-0.985,0.951c-0.372,0.199-0.813,0.298-1.326,0.298
		c-0.324,0-0.61-0.042-0.857-0.125c-0.248-0.083-0.455-0.202-0.621-0.355c-0.167-0.153-0.292-0.339-0.375-0.557
		c-0.083-0.217-0.125-0.461-0.125-0.73c0-0.282,0.048-0.56,0.145-0.835c0.096-0.275,0.268-0.522,0.515-0.74
		c0.248-0.218,0.585-0.393,1.012-0.525c0.428-0.132,0.972-0.199,1.634-0.199h0.96v-0.365c0-0.299-0.025-0.552-0.077-0.759
		c-0.051-0.207-0.129-0.375-0.233-0.503c-0.104-0.128-0.24-0.221-0.406-0.278c-0.167-0.058-0.365-0.086-0.596-0.086
		c-0.436,0-0.819,0.184-1.152,0.551c-0.282,0.307-0.549,0.461-0.801,0.461c-0.149,0-0.264-0.042-0.343-0.128
		s-0.118-0.192-0.118-0.32c0-0.167,0.079-0.317,0.236-0.452c0.158-0.134,0.364-0.249,0.618-0.342
		c0.254-0.094,0.54-0.167,0.858-0.218s0.64-0.077,0.964-0.077c0.474,0,0.866,0.049,1.178,0.147s0.561,0.246,0.746,0.442
		s0.316,0.443,0.391,0.74c0.075,0.296,0.112,0.646,0.112,1.047v3.592c0,0.209-0.036,0.364-0.109,0.464
		c-0.072,0.1-0.207,0.15-0.403,0.15c-0.286,0-0.49-0.097-0.614-0.292C96.966,31.805,96.904,31.49,96.904,31.054z M96.853,28.774
		h-0.762c-1.435,0-2.151,0.522-2.151,1.566c0,0.719,0.38,1.078,1.14,1.078c0.166,0,0.353-0.032,0.557-0.096
		c0.205-0.064,0.398-0.16,0.58-0.289s0.333-0.289,0.454-0.481c0.122-0.193,0.183-0.417,0.183-0.674V28.774z"/>
	<path fill="#FFFFFF" d="M101.585,23.396v3.516h0.025c0.444-0.803,1.125-1.204,2.043-1.204c0.299,0,0.583,0.041,0.852,0.122
		c0.27,0.081,0.506,0.23,0.711,0.448c0.205,0.217,0.369,0.52,0.493,0.906c0.124,0.387,0.188,0.883,0.192,1.489
		c0,0.585-0.072,1.103-0.215,1.553c-0.144,0.45-0.349,0.828-0.618,1.133c-0.269,0.305-0.597,0.537-0.982,0.695
		c-0.387,0.158-0.823,0.237-1.31,0.237c-0.603,0-1.166-0.1-1.69-0.301c-0.137-0.051-0.259-0.108-0.365-0.17s-0.196-0.138-0.27-0.227
		c-0.072-0.09-0.129-0.194-0.169-0.314c-0.041-0.12-0.062-0.263-0.062-0.429v-7.908c0-0.218,0.036-0.375,0.109-0.471
		c0.072-0.096,0.211-0.144,0.416-0.144c0.295,0,0.508,0.082,0.641,0.247C101.519,22.737,101.585,23.011,101.585,23.396z
		 M101.572,28.065v3.007c0,0.094,0.027,0.183,0.083,0.266c0.056,0.083,0.135,0.157,0.237,0.222c0.103,0.064,0.229,0.114,0.378,0.15
		c0.149,0.037,0.317,0.055,0.506,0.055c1.136,0,1.703-0.998,1.703-2.994c0-0.462-0.035-0.836-0.105-1.122
		c-0.07-0.287-0.167-0.509-0.288-0.667c-0.122-0.158-0.265-0.265-0.43-0.32c-0.164-0.056-0.34-0.083-0.528-0.083
		c-0.171,0-0.348,0.044-0.531,0.131c-0.184,0.088-0.352,0.202-0.503,0.343s-0.276,0.3-0.374,0.478
		C101.621,27.708,101.572,27.886,101.572,28.065z"/>
	<path fill="#FFFFFF" d="M109.071,23.396V31.4c0,0.188-0.016,0.339-0.045,0.455c-0.03,0.115-0.078,0.205-0.145,0.269
		s-0.152,0.108-0.259,0.131c-0.107,0.023-0.237,0.035-0.391,0.035c-0.205,0-0.344-0.05-0.417-0.15
		c-0.072-0.101-0.108-0.255-0.108-0.464v-8.734c0-0.218,0.036-0.375,0.108-0.471c0.073-0.096,0.212-0.144,0.417-0.144
		c0.294,0,0.508,0.082,0.64,0.247C109.005,22.737,109.071,23.011,109.071,23.396z"/>
	<path fill="#FFFFFF" d="M115.89,30.638c0.039-0.047,0.087-0.083,0.145-0.108c0.058-0.026,0.118-0.039,0.183-0.039
		c0.077,0,0.146,0.025,0.208,0.077s0.093,0.118,0.093,0.199c0,0.162-0.056,0.312-0.166,0.448c-0.585,0.717-1.39,1.076-2.414,1.076
		c-0.513,0-0.963-0.071-1.352-0.214s-0.712-0.35-0.97-0.621c-0.259-0.271-0.453-0.6-0.583-0.986
		c-0.131-0.386-0.195-0.823-0.195-1.31c0-1.131,0.262-1.989,0.784-2.574c0.523-0.585,1.286-0.877,2.289-0.877
		c0.397,0,0.757,0.058,1.079,0.173s0.599,0.285,0.829,0.509s0.409,0.5,0.535,0.829c0.126,0.329,0.188,0.705,0.188,1.127
		c0,0.427-0.247,0.641-0.742,0.641h-3.528c-0.005,0.034-0.008,0.076-0.01,0.125c-0.002,0.049-0.003,0.104-0.003,0.163
		c0,0.376,0.036,0.714,0.108,1.015c0.072,0.301,0.184,0.557,0.333,0.768c0.149,0.211,0.338,0.374,0.566,0.487
		c0.229,0.113,0.499,0.17,0.811,0.17c0.256,0,0.476-0.033,0.659-0.1c0.184-0.066,0.341-0.147,0.471-0.243s0.24-0.197,0.33-0.304
		c0.09-0.106,0.166-0.198,0.23-0.275L115.89,30.638z M113.828,26.232c-0.423,0-0.768,0.178-1.034,0.535s-0.428,0.913-0.483,1.668
		h2.452c0.154,0,0.267-0.028,0.337-0.083c0.07-0.056,0.105-0.156,0.105-0.301c0-0.294-0.037-0.555-0.112-0.781
		c-0.074-0.226-0.175-0.416-0.301-0.57s-0.272-0.27-0.438-0.349C114.187,26.272,114.012,26.232,113.828,26.232z"/>
	<path fill="#FFFFFF" d="M124.656,32.29c-0.474,0-0.897-0.068-1.271-0.205c-0.374-0.136-0.688-0.342-0.945-0.618
		c-0.256-0.275-0.451-0.618-0.586-1.028c-0.134-0.41-0.201-0.89-0.201-1.441c0-0.555,0.07-1.04,0.211-1.454s0.342-0.756,0.603-1.028
		c0.26-0.271,0.575-0.474,0.944-0.608c0.369-0.134,0.784-0.202,1.245-0.202c0.466,0,0.884,0.067,1.255,0.202
		c0.372,0.135,0.688,0.338,0.948,0.612c0.26,0.273,0.459,0.616,0.596,1.028s0.205,0.896,0.205,1.45c0,0.551-0.066,1.031-0.199,1.441
		c-0.132,0.41-0.326,0.752-0.582,1.028c-0.257,0.275-0.571,0.481-0.945,0.618C125.561,32.222,125.135,32.29,124.656,32.29z
		 M124.656,31.765c0.235,0,0.449-0.04,0.644-0.119s0.362-0.221,0.503-0.426s0.25-0.487,0.326-0.845
		c0.077-0.359,0.115-0.817,0.115-1.377c0-0.542-0.039-0.991-0.118-1.348s-0.188-0.641-0.33-0.852
		c-0.141-0.211-0.309-0.358-0.502-0.442c-0.194-0.083-0.407-0.125-0.638-0.125c-0.222,0-0.429,0.042-0.621,0.125
		c-0.192,0.083-0.359,0.231-0.503,0.442c-0.143,0.211-0.255,0.496-0.336,0.852s-0.121,0.806-0.121,1.348
		c0,0.538,0.036,0.985,0.108,1.342s0.178,0.64,0.317,0.852c0.139,0.211,0.305,0.36,0.499,0.445
		C124.194,31.722,124.413,31.765,124.656,31.765z"/>
	<path fill="#FFFFFF" d="M129.369,31.675v-5.405c0-0.209,0.043-0.355,0.129-0.438c0.085-0.083,0.23-0.125,0.435-0.125
		c0.244,0,0.434,0.094,0.57,0.282c0.137,0.188,0.205,0.47,0.205,0.845v0.09h0.025c0.23-0.372,0.539-0.667,0.926-0.887
		c0.386-0.22,0.842-0.33,1.367-0.33c1.233,0,1.851,0.66,1.851,1.979v3.989c0,0.209-0.037,0.364-0.109,0.464
		c-0.072,0.1-0.211,0.15-0.416,0.15c-0.295,0-0.508-0.082-0.641-0.247c-0.132-0.164-0.198-0.441-0.198-0.83v-3.282
		c0-0.902-0.371-1.353-1.114-1.353c-0.192,0-0.387,0.041-0.583,0.122c-0.196,0.082-0.374,0.191-0.534,0.33
		c-0.16,0.139-0.292,0.3-0.395,0.484c-0.102,0.184-0.153,0.376-0.153,0.577v3.27c0,0.188-0.015,0.342-0.045,0.462
		c-0.029,0.12-0.078,0.213-0.144,0.282c-0.066,0.068-0.153,0.117-0.26,0.145s-0.237,0.042-0.391,0.042
		c-0.205,0-0.344-0.05-0.416-0.15C129.405,32.039,129.369,31.884,129.369,31.675z"/>
</g>
<g>
	<path fill="#FFFFFF" d="M64.146,46.263L63.44,48.14c-0.112,0.29-0.239,0.484-0.38,0.583s-0.295,0.147-0.46,0.147
		c-0.13,0-0.224-0.036-0.282-0.107c-0.059-0.071-0.087-0.164-0.087-0.275c0-0.095,0.022-0.204,0.067-0.33l3.24-8.717
		c0.041-0.108,0.129-0.189,0.266-0.246c0.137-0.056,0.299-0.084,0.487-0.084c0.202,0,0.381,0.033,0.538,0.098
		c0.157,0.065,0.258,0.156,0.303,0.272l3.152,8.73c0.018,0.077,0.027,0.144,0.027,0.202c0,0.13-0.042,0.238-0.128,0.326
		c-0.085,0.087-0.222,0.131-0.41,0.131c-0.511,0-0.854-0.243-1.028-0.73l-0.733-1.877H64.146z M67.802,45.536l-1.66-4.799h-0.087
		l-1.694,4.799H67.802z"/>
	<path fill="#FFFFFF" d="M75.236,45.086h-1.432v2.891c0,0.322-0.068,0.552-0.205,0.688s-0.353,0.205-0.648,0.205
		c-0.421,0-0.632-0.229-0.632-0.686v-8.389c0-0.255,0.047-0.434,0.141-0.534s0.249-0.151,0.464-0.151h2.299
		c0.157,0,0.334,0.003,0.534,0.007c0.199,0.005,0.411,0.023,0.635,0.058c0.224,0.033,0.457,0.088,0.699,0.164
		c0.242,0.076,0.484,0.188,0.726,0.336c0.157,0.095,0.305,0.211,0.444,0.35c0.139,0.14,0.26,0.302,0.363,0.487
		c0.103,0.187,0.184,0.399,0.242,0.639c0.059,0.24,0.087,0.51,0.087,0.811c0,0.438-0.076,0.848-0.229,1.227
		c-0.152,0.378-0.383,0.709-0.692,0.991c-0.31,0.282-0.697,0.504-1.163,0.665S75.859,45.086,75.236,45.086z M75.223,39.837h-1.418
		v4.523h1.418c0.69,0,1.225-0.194,1.606-0.583c0.38-0.39,0.571-0.995,0.571-1.817c0-0.342-0.041-0.645-0.121-0.91
		c-0.081-0.265-0.208-0.487-0.383-0.667s-0.4-0.315-0.675-0.408C75.945,39.883,75.612,39.837,75.223,39.837z"/>
	<path fill="#FFFFFF" d="M83.731,45.086H82.3v2.891c0,0.322-0.068,0.552-0.205,0.688s-0.353,0.205-0.648,0.205
		c-0.421,0-0.632-0.229-0.632-0.686v-8.389c0-0.255,0.047-0.434,0.141-0.534s0.249-0.151,0.464-0.151h2.298
		c0.157,0,0.335,0.003,0.534,0.007c0.2,0.005,0.411,0.023,0.636,0.058c0.224,0.033,0.457,0.088,0.699,0.164
		c0.241,0.076,0.483,0.188,0.726,0.336c0.157,0.095,0.305,0.211,0.443,0.35c0.139,0.14,0.26,0.302,0.363,0.487
		c0.103,0.187,0.184,0.399,0.242,0.639c0.058,0.24,0.087,0.51,0.087,0.811c0,0.438-0.076,0.848-0.229,1.227
		c-0.152,0.378-0.383,0.709-0.692,0.991c-0.309,0.282-0.696,0.504-1.162,0.665C84.898,45.005,84.354,45.086,83.731,45.086z
		 M83.718,39.837H82.3v4.523h1.418c0.69,0,1.226-0.194,1.606-0.583c0.381-0.39,0.571-0.995,0.571-1.817
		c0-0.342-0.04-0.645-0.121-0.91c-0.08-0.265-0.208-0.487-0.383-0.667s-0.399-0.315-0.676-0.408
		C84.44,39.883,84.107,39.837,83.718,39.837z"/>
	<path fill="#FFFFFF" d="M98.693,41.618c-0.273,0-0.475-0.065-0.604-0.195s-0.195-0.35-0.195-0.659v-0.705
		c-0.018-0.005-0.046-0.013-0.084-0.023c-0.038-0.012-0.086-0.026-0.145-0.044c-0.22-0.063-0.445-0.108-0.679-0.138
		s-0.471-0.044-0.713-0.044c-0.317,0-0.591,0.052-0.819,0.154c-0.229,0.104-0.419,0.236-0.571,0.4
		c-0.152,0.163-0.265,0.346-0.336,0.548c-0.072,0.201-0.108,0.403-0.108,0.604c0,0.238,0.028,0.439,0.085,0.605
		c0.056,0.166,0.154,0.314,0.295,0.446c0.142,0.133,0.332,0.257,0.571,0.373c0.24,0.117,0.544,0.24,0.911,0.37
		c0.233,0.085,0.422,0.153,0.568,0.205c0.146,0.052,0.276,0.1,0.393,0.145s0.234,0.092,0.354,0.141
		c0.118,0.05,0.265,0.11,0.439,0.182c0.171,0.072,0.309,0.134,0.414,0.186c0.104,0.051,0.198,0.102,0.278,0.15
		c0.081,0.05,0.157,0.102,0.229,0.155c0.072,0.054,0.159,0.118,0.263,0.194c0.215,0.166,0.382,0.373,0.501,0.622
		c0.118,0.249,0.178,0.553,0.178,0.911c0,0.39-0.087,0.748-0.259,1.075c-0.173,0.327-0.424,0.608-0.753,0.844
		c-0.329,0.234-0.732,0.419-1.21,0.551s-1.021,0.198-1.63,0.198c-0.265,0-0.557-0.021-0.877-0.063
		c-0.32-0.043-0.626-0.098-0.918-0.165c-0.291-0.067-0.549-0.143-0.772-0.226c-0.225-0.082-0.374-0.166-0.45-0.252
		c-0.072-0.076-0.107-0.213-0.107-0.41v-0.826c0-0.439,0.196-0.659,0.591-0.659c0.27,0,0.47,0.067,0.602,0.202
		c0.133,0.135,0.198,0.356,0.198,0.665v0.746c0.583,0.193,1.143,0.289,1.681,0.289c0.372,0,0.705-0.05,0.998-0.151
		c0.294-0.101,0.541-0.236,0.743-0.406c0.201-0.17,0.355-0.364,0.464-0.581c0.107-0.218,0.161-0.445,0.161-0.683
		c0-0.242-0.053-0.454-0.158-0.635c-0.105-0.182-0.275-0.353-0.511-0.512c-0.235-0.158-0.539-0.315-0.911-0.47
		c-0.372-0.155-0.822-0.324-1.351-0.508l-0.545-0.222c-0.111-0.045-0.207-0.085-0.285-0.121s-0.151-0.073-0.219-0.111
		c-0.067-0.037-0.134-0.076-0.201-0.114c-0.067-0.037-0.144-0.084-0.229-0.138c-0.185-0.111-0.341-0.232-0.471-0.362
		s-0.237-0.273-0.322-0.431c-0.086-0.156-0.149-0.328-0.192-0.514c-0.042-0.187-0.07-0.389-0.084-0.608
		c0-0.377,0.075-0.718,0.226-1.025c0.15-0.307,0.366-0.568,0.648-0.786s0.625-0.386,1.028-0.504c0.403-0.119,0.86-0.179,1.371-0.179
		c0.771,0,1.62,0.133,2.548,0.396c0.111,0.036,0.204,0.072,0.275,0.107c0.071,0.036,0.129,0.078,0.171,0.125
		c0.043,0.047,0.073,0.104,0.091,0.171c0.019,0.067,0.027,0.15,0.027,0.249v0.793C99.285,41.396,99.088,41.618,98.693,41.618z"/>
	<path fill="#FFFFFF" d="M108.022,39.837h-2.063v8.206c0,0.313-0.067,0.53-0.201,0.649c-0.135,0.118-0.353,0.178-0.652,0.178
		c-0.421,0-0.632-0.229-0.632-0.687v-8.347h-2.063v0.978c0,0.324-0.066,0.555-0.198,0.691c-0.133,0.138-0.333,0.206-0.602,0.206
		c-0.395,0-0.592-0.229-0.592-0.686v-1.405c0-0.201,0.066-0.337,0.198-0.406c0.133-0.069,0.342-0.104,0.629-0.104h6.741
		c0.287,0,0.496,0.035,0.629,0.104c0.132,0.069,0.198,0.205,0.198,0.406v1.405c0,0.242-0.049,0.417-0.145,0.524
		c-0.097,0.107-0.245,0.161-0.447,0.161c-0.269,0-0.47-0.068-0.602-0.206c-0.132-0.137-0.198-0.367-0.198-0.691V39.837z"/>
	<path fill="#FFFFFF" d="M118.817,43.997c0,0.233-0.016,0.515-0.047,0.844c-0.032,0.329-0.097,0.676-0.195,1.038
		c-0.099,0.363-0.241,0.723-0.427,1.079c-0.187,0.356-0.435,0.676-0.746,0.958s-0.695,0.512-1.152,0.688s-1.007,0.266-1.647,0.266
		c-0.645,0-1.196-0.09-1.653-0.269c-0.457-0.18-0.84-0.414-1.149-0.703c-0.309-0.289-0.556-0.613-0.739-0.975
		c-0.184-0.36-0.322-0.721-0.417-1.082c-0.094-0.36-0.154-0.703-0.181-1.028c-0.027-0.324-0.041-0.597-0.041-0.816
		c0-0.237,0.016-0.523,0.047-0.857c0.031-0.333,0.097-0.682,0.195-1.045c0.099-0.362,0.241-0.723,0.427-1.078
		c0.186-0.356,0.434-0.676,0.743-0.958c0.309-0.282,0.689-0.511,1.143-0.686c0.452-0.175,0.994-0.263,1.626-0.263
		s1.176,0.089,1.63,0.266c0.455,0.177,0.839,0.409,1.153,0.696c0.313,0.286,0.564,0.609,0.753,0.968
		c0.188,0.358,0.332,0.718,0.434,1.078c0.101,0.361,0.166,0.707,0.198,1.039C118.802,43.488,118.817,43.769,118.817,43.997z
		 M114.603,39.81c-0.39,0-0.725,0.069-1.005,0.208c-0.28,0.14-0.518,0.322-0.712,0.548c-0.195,0.227-0.353,0.486-0.471,0.78
		c-0.119,0.293-0.211,0.595-0.275,0.904c-0.065,0.309-0.109,0.615-0.131,0.92c-0.022,0.306-0.034,0.581-0.034,0.827
		c0,0.211,0.009,0.46,0.027,0.749c0.018,0.289,0.056,0.589,0.114,0.897c0.058,0.31,0.145,0.615,0.259,0.918s0.269,0.572,0.464,0.81
		c0.194,0.237,0.436,0.431,0.722,0.578c0.287,0.147,0.635,0.222,1.042,0.222c0.395-0.009,0.734-0.08,1.019-0.215
		s0.524-0.312,0.719-0.531c0.195-0.22,0.354-0.472,0.475-0.756s0.214-0.58,0.278-0.888c0.065-0.307,0.109-0.613,0.132-0.921
		c0.021-0.307,0.033-0.595,0.033-0.863c0-0.215-0.008-0.468-0.023-0.76c-0.016-0.291-0.053-0.592-0.111-0.903
		c-0.058-0.312-0.145-0.617-0.259-0.918c-0.114-0.3-0.27-0.57-0.467-0.81c-0.197-0.24-0.442-0.433-0.736-0.578
		C115.368,39.883,115.015,39.81,114.603,39.81z"/>
	<path fill="#FFFFFF" d="M120.921,48.185v-8.389c0-0.255,0.047-0.434,0.141-0.534c0.095-0.101,0.249-0.151,0.464-0.151h2.602
		c0.475,0,0.922,0.038,1.341,0.114s0.785,0.214,1.099,0.414c0.314,0.199,0.563,0.47,0.75,0.813c0.186,0.343,0.283,0.781,0.292,1.314
		c0,0.332-0.068,0.646-0.205,0.941c-0.137,0.295-0.316,0.56-0.541,0.793c-0.224,0.232-0.48,0.426-0.77,0.578
		s-0.586,0.253-0.891,0.302l2.285,3.677c0.081,0.13,0.121,0.249,0.121,0.356c0,0.139-0.06,0.25-0.178,0.333
		c-0.119,0.083-0.293,0.124-0.521,0.124c-0.421,0-0.734-0.175-0.94-0.524l-2.313-3.864h-1.25v3.495c0,0.322-0.068,0.552-0.205,0.688
		s-0.353,0.205-0.648,0.205C121.132,48.87,120.921,48.642,120.921,48.185z M123.992,39.837h-1.586v3.918h1.472
		c0.251,0,0.507-0.037,0.767-0.111s0.494-0.193,0.702-0.357c0.209-0.164,0.379-0.377,0.511-0.641
		c0.133-0.263,0.198-0.583,0.198-0.961c0-0.288-0.033-0.533-0.101-0.735s-0.155-0.372-0.266-0.509
		c-0.109-0.138-0.237-0.246-0.383-0.327s-0.295-0.142-0.447-0.183c-0.152-0.04-0.304-0.066-0.453-0.077
		C124.256,39.842,124.118,39.837,123.992,39.837z"/>
	<path fill="#FFFFFF" d="M135.318,41.504c-0.273,0-0.475-0.069-0.604-0.206c-0.13-0.138-0.195-0.368-0.195-0.692v-0.769h-3.26v3.609
		h2.891c0.12,0,0.215,0.038,0.282,0.114s0.101,0.165,0.101,0.269c0,0.045-0.012,0.09-0.033,0.135
		c-0.023,0.045-0.052,0.085-0.088,0.121c-0.036,0.035-0.076,0.064-0.121,0.087s-0.092,0.033-0.141,0.033h-2.891v3.939h3.469v-0.77
		c0-0.324,0.064-0.555,0.194-0.691c0.13-0.138,0.332-0.206,0.605-0.206c0.201,0,0.351,0.054,0.446,0.161
		c0.097,0.107,0.145,0.282,0.145,0.524v1.196c0,0.201-0.066,0.337-0.198,0.406c-0.132,0.07-0.342,0.104-0.628,0.104h-4.887
		c-0.421,0-0.632-0.229-0.632-0.686v-8.389c0-0.457,0.211-0.686,0.632-0.686h4.678c0.287,0,0.496,0.035,0.629,0.104
		c0.132,0.069,0.198,0.205,0.198,0.406v1.197c0,0.241-0.048,0.416-0.145,0.523S135.521,41.504,135.318,41.504z"/>
</g>
</svg>
