<?xml version="1.0" encoding="utf-8"?>
<!-- Generator: Adobe Illustrator 17.0.1, SVG Export Plug-In . SVG Version: 6.00 Build 0)  -->
<!DOCTYPE svg PUBLIC "-//W3C//DTD SVG 1.1//EN" "http://www.w3.org/Graphics/SVG/1.1/DTD/svg11.dtd">
<svg version="1.1" id="Layer_1" xmlns="http://www.w3.org/2000/svg" xmlns:xlink="http://www.w3.org/1999/xlink" x="0px" y="0px"
	 width="50px" height="50px" viewBox="0 0 50 50" enable-background="new 0 0 50 50" xml:space="preserve">
<path fill="#523446" d="M48.762,8.413c-0.622-2.182-2.553-3.937-6.262-5.69c-6.397-3.026-12.464-1.787-16.231,3.309
	C26.196,6.13,26.152,6.24,26.12,6.35c-0.86-0.063-1.774-0.02-2.763,0.173c-4.022,0.787-8.388,2.115-9.272,7.954
	c-0.004,0.026,0.005,0.049,0.004,0.075c-0.281,0.087-0.562,0.183-0.841,0.3c-4.367,1.829-6.616,5.429-6.17,9.874
	c0.007,0.074,0.038,0.137,0.061,0.205c-3.747,2.247-5.955,5.725-6.056,9.67l-0.009,0.341c-0.111,4.337-0.227,8.821,2.377,12.901
	c0.125,0.196,0.315,0.343,0.537,0.414c1.404,0.451,2.734,0.648,4.006,0.648c4.736,0,8.646-2.75,12.452-5.429l0.72-0.505
	c9.866-6.912,18.271-15.854,25.692-27.338C48.734,12.731,49.339,10.437,48.762,8.413z M45.178,14.549
	c-7.279,11.264-15.51,20.024-25.16,26.785l-0.723,0.508c-4.538,3.193-8.831,6.215-14.35,4.617
	c-2.077-3.485-1.978-7.364-1.872-11.465l0.009-0.342c0.124-4.867,3.976-7.454,5.627-8.341c1.187-0.639,4.541-0.093,6.008,2.333
	c0.285,0.472,0.899,0.622,1.373,0.338c0.473-0.286,0.624-0.9,0.338-1.373c-1.687-2.789-5.082-3.814-7.381-3.46
	c-0.269-4.536,2.973-6.614,4.973-7.453c2.813-1.178,5.889-0.297,9.404,2.692c0.418,0.357,1.052,0.309,1.409-0.114
	c0.357-0.421,0.307-1.052-0.114-1.409c-3.033-2.578-5.853-3.793-8.547-3.676c0.786-3.662,3.396-4.887,7.568-5.702
	c3.517-0.688,6.006,0.93,8.641,2.641c0.707,0.459,1.438,0.935,2.194,1.367c0.477,0.274,1.089,0.108,1.364-0.37
	s0.109-1.09-0.37-1.364c-0.708-0.406-1.415-0.865-2.099-1.311c-1.627-1.057-3.285-2.132-5.21-2.706
	c3.213-3.917,8.052-4.736,13.384-2.212c3.1,1.465,4.75,2.873,5.194,4.431C47.246,10.39,46.718,12.166,45.178,14.549z"/>
</svg>
