<?xml version="1.0" encoding="utf-8"?>
<!-- Generator: Adobe Illustrator 17.0.1, SVG Export Plug-In . SVG Version: 6.00 Build 0)  -->
<!DOCTYPE svg PUBLIC "-//W3C//DTD SVG 1.1//EN" "http://www.w3.org/Graphics/SVG/1.1/DTD/svg11.dtd">
<svg version="1.1" id="Layer_1" xmlns="http://www.w3.org/2000/svg" xmlns:xlink="http://www.w3.org/1999/xlink" x="0px" y="0px"
	 width="50px" height="50px" viewBox="0 0 50 50" enable-background="new 0 0 50 50" xml:space="preserve">
<g>
	<path fill="#523446" d="M49.387,25.225C48.489,13.538,41.834,5.909,30.729,3.774c-3.059-0.588-5.61-0.2-8.193,2.104
		C15.37,12.271,7.877,18.298,0.514,24.47c0,2.333,0,4.667,0,7c1.787-0.643,4.019-0.863,4.211,1.342
		c0.209,2.411-2.147,2.76-4.211,2.658c0,3.667,0,7.333,0,11c12.387-1.328,24.766-2.743,37.164-3.956
		c10.141-0.992,11.27-2.039,11.753-12.304C49.509,28.552,49.514,26.879,49.387,25.225z M47.216,30.252
		c-0.797,8.843-1.347,9.304-10.246,10.193c-10.087,1.007-20.154,2.223-30.245,3.195c-1.316,0.127-3.623,1.95-3.995-0.781
		c-0.246-1.805-1.226-3.978,1.217-5.791c4.629-3.436,4.546-4.597-0.039-7.94c-2.403-1.752-1.568-2.648,0.546-3.21
		c4.654-1.236,9.364-2.259,14.04-3.415c1.555-0.384,1.87,0.315,2.196,1.706c0.567,2.419,2.319,3.738,4.83,3.119
		c2.463-0.607,3.783-2.566,2.861-4.926c-0.989-2.533,0.815-2.396,2.042-2.711c3.861-0.989,7.843-1.577,11.615-2.816
		c2.778-0.912,3.635,0.238,4.045,2.51c0.529,2.937,0.973,5.89,1.287,7.814C47.285,28.924,47.276,29.59,47.216,30.252z"/>
	<path fill="#523446" d="M38.522,21.796c-2.058,0.5-3.892,1.58-3.915,4.174c-0.02,2.319,1.528,3.85,3.682,4.019
		c2.41,0.19,4.181-1.171,4.357-3.774C42.823,23.577,41.142,22.36,38.522,21.796z"/>
	<path fill="#523446" d="M19.447,33.798c-1.785,0.371-3.299,1.415-3.419,3.481c-0.122,2.101,1.239,3.543,3.283,3.645
		c2.249,0.112,3.924-1.218,3.889-3.559C23.169,35.337,21.663,34.182,19.447,33.798z"/>
	<path fill="#523446" d="M33.894,33.906c-1.417-0.149-2.568,0.766-2.744,2.217c-0.211,1.737,0.873,2.857,2.541,2.868
		c1.383,0.008,2.309-1.005,2.686-2.663C36.055,35.171,35.269,34.05,33.894,33.906z"/>
	<path fill="#523446" d="M19.227,29.612c-0.336-1.178-0.981-2.138-2.337-2.137c-1.305,0.001-2.253,0.734-2.322,2.083
		c-0.082,1.617,0.96,2.498,2.465,2.404C18.28,31.886,19.048,30.946,19.227,29.612z"/>
	<path fill="#523446" d="M9.362,37.053c-1.351-0.448-2.318,0.307-2.701,1.474c-0.499,1.524,0.272,2.581,1.824,2.885
		c1.37,0.268,2.124-0.595,2.658-1.846C11.259,38.301,10.56,37.45,9.362,37.053z"/>
</g>
</svg>
