<?xml version="1.0" encoding="utf-8"?>
<!-- Generator: Adobe Illustrator 17.0.1, SVG Export Plug-In . SVG Version: 6.00 Build 0)  -->
<!DOCTYPE svg PUBLIC "-//W3C//DTD SVG 1.1//EN" "http://www.w3.org/Graphics/SVG/1.1/DTD/svg11.dtd">
<svg version="1.1" id="Layer_1" xmlns="http://www.w3.org/2000/svg" xmlns:xlink="http://www.w3.org/1999/xlink" x="0px" y="0px"
	 width="50px" height="50px" viewBox="0 0 50 50" enable-background="new 0 0 50 50" xml:space="preserve">
<path fill="#523446" d="M2.536,47.427c3.338-6.202,6.483-12.537,10.077-18.606c5.243-8.854,11.768-16.328,21.992-19.907
	c2.636-0.923,5.027-3.186,6.954-5.347c2.78-3.118,3.991-1.265,5.906,1.341c-1.969,1.583-4.033,2.773-5.45,4.495
	c-1.946,2.364-4.514,5.017-4.794,7.753c-0.378,3.693-2.305,5.41-4.604,7.67c-5.875,5.777-11.668,11.691-16.933,18.017
	C11.977,47.297,8.094,49.154,2.536,47.427z M45.649,4.238c-0.322-0.365-0.645-0.729-0.967-1.094
	c-3.743,2.831-7.487,5.662-11.943,9.032c1.696,0.589,3.371,1.611,3.775,1.242C39.695,10.508,42.635,7.332,45.649,4.238z
	 M20.341,22.605c3.35-2.433,6.7-4.866,10.051-7.299c-0.355-0.485-0.711-0.971-1.066-1.456C24.848,14.78,22.147,18.205,20.341,22.605
	z"/>
</svg>
