<?xml version="1.0" encoding="utf-8"?>
<!-- Generator: Adobe Illustrator 17.0.1, SVG Export Plug-In . SVG Version: 6.00 Build 0)  -->
<!DOCTYPE svg PUBLIC "-//W3C//DTD SVG 1.1//EN" "http://www.w3.org/Graphics/SVG/1.1/DTD/svg11.dtd">
<svg version="1.1" id="Layer_1" xmlns="http://www.w3.org/2000/svg" xmlns:xlink="http://www.w3.org/1999/xlink" x="0px" y="0px"
	 width="50px" height="50px" viewBox="945.83 -87.278 50 50" enable-background="new 945.83 -87.278 50 50" xml:space="preserve">
<path fill="#523446" d="M970.969-84.777c3.118,5.488,6.683,11.637,10.112,17.861c1.355,2.459,2.629,5.007,3.557,7.649
	c2.267,6.455,0.644,12.113-4.339,16.075c-5.308,4.22-11.883,4.547-17.644,0.878c-5.266-3.354-7.91-9.172-6.04-15.539
	c1.237-4.21,3.627-8.116,5.753-12.021C965.204-75.078,968.283-80.147,970.969-84.777z M975.936-71.361
	c-0.465,0.114-0.93,0.228-1.395,0.342c0.659,5.222,1.173,10.469,2.061,15.652c0.291,1.697,1.553,3.228,2.371,4.835
	c0.877-1.888,2.839-4.061,2.431-5.61C980.039-61.336,977.825-66.306,975.936-71.361z"/>
</svg>
