<?xml version="1.0" encoding="utf-8"?>
<!-- Generator: Adobe Illustrator 17.0.1, SVG Export Plug-In . SVG Version: 6.00 Build 0)  -->
<!DOCTYPE svg PUBLIC "-//W3C//DTD SVG 1.1//EN" "http://www.w3.org/Graphics/SVG/1.1/DTD/svg11.dtd">
<svg version="1.1" id="Layer_1" xmlns="http://www.w3.org/2000/svg" xmlns:xlink="http://www.w3.org/1999/xlink" x="0px" y="0px"
	 width="163px" height="66px" viewBox="0 0 163 66" enable-background="new 0 0 163 66" xml:space="preserve">
<g>
	<path fill="#FFFFFF" d="M64.476,29.806l-0.672,1.788c-0.106,0.277-0.227,0.462-0.362,0.556c-0.134,0.094-0.281,0.141-0.438,0.141
		c-0.124,0-0.213-0.034-0.269-0.103c-0.055-0.068-0.083-0.156-0.083-0.263c0-0.089,0.021-0.194,0.064-0.313l3.086-8.306
		c0.039-0.102,0.123-0.18,0.253-0.233s0.285-0.08,0.464-0.08c0.192,0,0.363,0.031,0.512,0.093s0.246,0.148,0.288,0.259l3.003,8.318
		c0.017,0.073,0.025,0.137,0.025,0.192c0,0.124-0.041,0.228-0.122,0.311c-0.081,0.083-0.211,0.125-0.391,0.125
		c-0.486,0-0.813-0.232-0.979-0.696l-0.698-1.788H64.476z M67.96,29.114l-1.582-4.572h-0.083l-1.614,4.572H67.96z"/>
	<path fill="#FFFFFF" d="M76.854,25.707c0.277,0,0.416,0.101,0.416,0.301c0,0.145-0.021,0.262-0.064,0.352l-2.19,5.603
		c-0.085,0.218-0.339,0.327-0.762,0.327c-0.38,0-0.61-0.109-0.691-0.327l-2.152-5.603c-0.047-0.103-0.07-0.203-0.07-0.301
		c0-0.235,0.162-0.353,0.487-0.353c0.23,0,0.439,0.072,0.627,0.215s0.337,0.364,0.448,0.663l1.588,4.418h0.064l0.89-2.369
		c0.196-0.525,0.42-1.229,0.672-2.113c0.073-0.26,0.16-0.461,0.263-0.602C76.483,25.778,76.641,25.707,76.854,25.707z"/>
	<path fill="#FFFFFF" d="M82.56,31.054l-0.038-0.013c-0.286,0.435-0.615,0.752-0.986,0.951c-0.371,0.199-0.813,0.298-1.326,0.298
		c-0.324,0-0.61-0.042-0.858-0.125c-0.248-0.083-0.455-0.202-0.621-0.355c-0.167-0.153-0.292-0.339-0.375-0.557
		c-0.083-0.217-0.125-0.461-0.125-0.73c0-0.282,0.048-0.56,0.144-0.835s0.268-0.522,0.516-0.74s0.585-0.393,1.012-0.525
		s0.971-0.199,1.633-0.199h0.961v-0.365c0-0.299-0.025-0.552-0.077-0.759s-0.13-0.375-0.233-0.503
		c-0.105-0.128-0.241-0.221-0.407-0.278c-0.166-0.058-0.365-0.086-0.595-0.086c-0.436,0-0.82,0.184-1.153,0.551
		c-0.282,0.307-0.548,0.461-0.8,0.461c-0.149,0-0.264-0.042-0.343-0.128s-0.118-0.192-0.118-0.32c0-0.167,0.079-0.317,0.237-0.452
		c0.158-0.134,0.364-0.249,0.618-0.342c0.254-0.094,0.54-0.167,0.858-0.218c0.318-0.051,0.639-0.077,0.964-0.077
		c0.474,0,0.867,0.049,1.178,0.147s0.56,0.246,0.745,0.442s0.316,0.443,0.391,0.74c0.076,0.296,0.113,0.646,0.113,1.047v3.592
		c0,0.209-0.037,0.364-0.109,0.464c-0.072,0.1-0.207,0.15-0.404,0.15c-0.285,0-0.49-0.097-0.613-0.292
		C82.621,31.805,82.56,31.49,82.56,31.054z M82.509,28.774h-0.762c-1.435,0-2.152,0.522-2.152,1.566c0,0.719,0.38,1.078,1.14,1.078
		c0.167,0,0.352-0.032,0.557-0.096c0.205-0.064,0.398-0.16,0.58-0.289c0.181-0.128,0.333-0.289,0.455-0.481
		c0.121-0.193,0.183-0.417,0.183-0.674V28.774z"/>
	<path fill="#FFFFFF" d="M86.024,24.619c-0.158-0.158-0.236-0.35-0.236-0.576c0-0.107,0.021-0.21,0.063-0.311
		c0.043-0.101,0.101-0.187,0.173-0.26c0.072-0.072,0.158-0.131,0.256-0.176c0.099-0.045,0.203-0.067,0.314-0.067
		c0.106,0,0.21,0.022,0.311,0.067c0.1,0.045,0.187,0.104,0.259,0.176c0.073,0.073,0.132,0.159,0.177,0.26
		c0.045,0.1,0.067,0.204,0.067,0.311c0,0.111-0.021,0.215-0.064,0.313s-0.102,0.185-0.176,0.259
		c-0.075,0.075-0.161,0.134-0.26,0.176s-0.203,0.064-0.313,0.064C86.372,24.855,86.183,24.776,86.024,24.619z M87.306,26.597V31.4
		c0,0.188-0.016,0.339-0.045,0.455c-0.03,0.115-0.078,0.205-0.145,0.269s-0.152,0.108-0.259,0.131
		c-0.107,0.023-0.237,0.035-0.391,0.035c-0.205,0-0.344-0.05-0.417-0.15c-0.072-0.101-0.108-0.255-0.108-0.464v-5.354
		c0-0.209,0.036-0.364,0.108-0.464c0.073-0.101,0.212-0.151,0.417-0.151c0.285,0,0.497,0.072,0.634,0.215
		S87.306,26.29,87.306,26.597z"/>
	<path fill="#FFFFFF" d="M90.897,23.396V31.4c0,0.188-0.016,0.339-0.045,0.455c-0.03,0.115-0.078,0.205-0.145,0.269
		s-0.152,0.108-0.259,0.131c-0.107,0.023-0.237,0.035-0.391,0.035c-0.205,0-0.344-0.05-0.417-0.15
		c-0.072-0.101-0.108-0.255-0.108-0.464v-8.734c0-0.218,0.036-0.375,0.108-0.471c0.073-0.096,0.212-0.144,0.417-0.144
		c0.294,0,0.508,0.082,0.64,0.247C90.831,22.737,90.897,23.011,90.897,23.396z"/>
	<path fill="#FFFFFF" d="M96.904,31.054l-0.039-0.013c-0.286,0.435-0.614,0.752-0.985,0.951c-0.372,0.199-0.813,0.298-1.326,0.298
		c-0.324,0-0.61-0.042-0.857-0.125c-0.248-0.083-0.455-0.202-0.621-0.355c-0.167-0.153-0.292-0.339-0.375-0.557
		c-0.083-0.217-0.125-0.461-0.125-0.73c0-0.282,0.048-0.56,0.145-0.835c0.096-0.275,0.268-0.522,0.515-0.74
		c0.248-0.218,0.585-0.393,1.012-0.525c0.428-0.132,0.972-0.199,1.634-0.199h0.96v-0.365c0-0.299-0.025-0.552-0.077-0.759
		c-0.051-0.207-0.129-0.375-0.233-0.503c-0.104-0.128-0.24-0.221-0.406-0.278c-0.167-0.058-0.365-0.086-0.596-0.086
		c-0.436,0-0.819,0.184-1.152,0.551c-0.282,0.307-0.549,0.461-0.801,0.461c-0.149,0-0.264-0.042-0.343-0.128
		s-0.118-0.192-0.118-0.32c0-0.167,0.079-0.317,0.236-0.452c0.158-0.134,0.364-0.249,0.618-0.342
		c0.254-0.094,0.54-0.167,0.858-0.218s0.64-0.077,0.964-0.077c0.474,0,0.866,0.049,1.178,0.147s0.561,0.246,0.746,0.442
		s0.316,0.443,0.391,0.74c0.075,0.296,0.112,0.646,0.112,1.047v3.592c0,0.209-0.036,0.364-0.109,0.464
		c-0.072,0.1-0.207,0.15-0.403,0.15c-0.286,0-0.49-0.097-0.614-0.292C96.966,31.805,96.904,31.49,96.904,31.054z M96.853,28.774
		h-0.762c-1.435,0-2.151,0.522-2.151,1.566c0,0.719,0.38,1.078,1.14,1.078c0.166,0,0.353-0.032,0.557-0.096
		c0.205-0.064,0.398-0.16,0.58-0.289s0.333-0.289,0.454-0.481c0.122-0.193,0.183-0.417,0.183-0.674V28.774z"/>
	<path fill="#FFFFFF" d="M101.585,23.396v3.516h0.025c0.444-0.803,1.125-1.204,2.043-1.204c0.299,0,0.583,0.041,0.852,0.122
		c0.27,0.081,0.506,0.23,0.711,0.448c0.205,0.217,0.369,0.52,0.493,0.906c0.124,0.387,0.188,0.883,0.192,1.489
		c0,0.585-0.072,1.103-0.215,1.553c-0.144,0.45-0.349,0.828-0.618,1.133c-0.269,0.305-0.597,0.537-0.982,0.695
		c-0.387,0.158-0.823,0.237-1.31,0.237c-0.603,0-1.166-0.1-1.69-0.301c-0.137-0.051-0.259-0.108-0.365-0.17s-0.196-0.138-0.27-0.227
		c-0.072-0.09-0.129-0.194-0.169-0.314c-0.041-0.12-0.062-0.263-0.062-0.429v-7.908c0-0.218,0.036-0.375,0.109-0.471
		c0.072-0.096,0.211-0.144,0.416-0.144c0.295,0,0.508,0.082,0.641,0.247C101.519,22.737,101.585,23.011,101.585,23.396z
		 M101.572,28.065v3.007c0,0.094,0.027,0.183,0.083,0.266c0.056,0.083,0.135,0.157,0.237,0.222c0.103,0.064,0.229,0.114,0.378,0.15
		c0.149,0.037,0.317,0.055,0.506,0.055c1.136,0,1.703-0.998,1.703-2.994c0-0.462-0.035-0.836-0.105-1.122
		c-0.07-0.287-0.167-0.509-0.288-0.667c-0.122-0.158-0.265-0.265-0.43-0.32c-0.164-0.056-0.34-0.083-0.528-0.083
		c-0.171,0-0.348,0.044-0.531,0.131c-0.184,0.088-0.352,0.202-0.503,0.343s-0.276,0.3-0.374,0.478
		C101.621,27.708,101.572,27.886,101.572,28.065z"/>
	<path fill="#FFFFFF" d="M109.071,23.396V31.4c0,0.188-0.016,0.339-0.045,0.455c-0.03,0.115-0.078,0.205-0.145,0.269
		s-0.152,0.108-0.259,0.131c-0.107,0.023-0.237,0.035-0.391,0.035c-0.205,0-0.344-0.05-0.417-0.15
		c-0.072-0.101-0.108-0.255-0.108-0.464v-8.734c0-0.218,0.036-0.375,0.108-0.471c0.073-0.096,0.212-0.144,0.417-0.144
		c0.294,0,0.508,0.082,0.64,0.247C109.005,22.737,109.071,23.011,109.071,23.396z"/>
	<path fill="#FFFFFF" d="M115.89,30.638c0.039-0.047,0.087-0.083,0.145-0.108c0.058-0.026,0.118-0.039,0.183-0.039
		c0.077,0,0.146,0.025,0.208,0.077s0.093,0.118,0.093,0.199c0,0.162-0.056,0.312-0.166,0.448c-0.585,0.717-1.39,1.076-2.414,1.076
		c-0.513,0-0.963-0.071-1.352-0.214s-0.712-0.35-0.97-0.621c-0.259-0.271-0.453-0.6-0.583-0.986
		c-0.131-0.386-0.195-0.823-0.195-1.31c0-1.131,0.262-1.989,0.784-2.574c0.523-0.585,1.286-0.877,2.289-0.877
		c0.397,0,0.757,0.058,1.079,0.173s0.599,0.285,0.829,0.509s0.409,0.5,0.535,0.829c0.126,0.329,0.188,0.705,0.188,1.127
		c0,0.427-0.247,0.641-0.742,0.641h-3.528c-0.005,0.034-0.008,0.076-0.01,0.125c-0.002,0.049-0.003,0.104-0.003,0.163
		c0,0.376,0.036,0.714,0.108,1.015c0.072,0.301,0.184,0.557,0.333,0.768c0.149,0.211,0.338,0.374,0.566,0.487
		c0.229,0.113,0.499,0.17,0.811,0.17c0.256,0,0.476-0.033,0.659-0.1c0.184-0.066,0.341-0.147,0.471-0.243s0.24-0.197,0.33-0.304
		c0.09-0.106,0.166-0.198,0.23-0.275L115.89,30.638z M113.828,26.232c-0.423,0-0.768,0.178-1.034,0.535s-0.428,0.913-0.483,1.668
		h2.452c0.154,0,0.267-0.028,0.337-0.083c0.07-0.056,0.105-0.156,0.105-0.301c0-0.294-0.037-0.555-0.112-0.781
		c-0.074-0.226-0.175-0.416-0.301-0.57s-0.272-0.27-0.438-0.349C114.187,26.272,114.012,26.232,113.828,26.232z"/>
	<path fill="#FFFFFF" d="M124.656,32.29c-0.474,0-0.897-0.068-1.271-0.205c-0.374-0.136-0.688-0.342-0.945-0.618
		c-0.256-0.275-0.451-0.618-0.586-1.028c-0.134-0.41-0.201-0.89-0.201-1.441c0-0.555,0.07-1.04,0.211-1.454s0.342-0.756,0.603-1.028
		c0.26-0.271,0.575-0.474,0.944-0.608c0.369-0.134,0.784-0.202,1.245-0.202c0.466,0,0.884,0.067,1.255,0.202
		c0.372,0.135,0.688,0.338,0.948,0.612c0.26,0.273,0.459,0.616,0.596,1.028s0.205,0.896,0.205,1.45c0,0.551-0.066,1.031-0.199,1.441
		c-0.132,0.41-0.326,0.752-0.582,1.028c-0.257,0.275-0.571,0.481-0.945,0.618C125.561,32.222,125.135,32.29,124.656,32.29z
		 M124.656,31.765c0.235,0,0.449-0.04,0.644-0.119s0.362-0.221,0.503-0.426s0.25-0.487,0.326-0.845
		c0.077-0.359,0.115-0.817,0.115-1.377c0-0.542-0.039-0.991-0.118-1.348s-0.188-0.641-0.33-0.852
		c-0.141-0.211-0.309-0.358-0.502-0.442c-0.194-0.083-0.407-0.125-0.638-0.125c-0.222,0-0.429,0.042-0.621,0.125
		c-0.192,0.083-0.359,0.231-0.503,0.442c-0.143,0.211-0.255,0.496-0.336,0.852s-0.121,0.806-0.121,1.348
		c0,0.538,0.036,0.985,0.108,1.342s0.178,0.64,0.317,0.852c0.139,0.211,0.305,0.36,0.499,0.445
		C124.194,31.722,124.413,31.765,124.656,31.765z"/>
	<path fill="#FFFFFF" d="M129.369,31.675v-5.405c0-0.209,0.043-0.355,0.129-0.438c0.085-0.083,0.23-0.125,0.435-0.125
		c0.244,0,0.434,0.094,0.57,0.282c0.137,0.188,0.205,0.47,0.205,0.845v0.09h0.025c0.23-0.372,0.539-0.667,0.926-0.887
		c0.386-0.22,0.842-0.33,1.367-0.33c1.233,0,1.851,0.66,1.851,1.979v3.989c0,0.209-0.037,0.364-0.109,0.464
		c-0.072,0.1-0.211,0.15-0.416,0.15c-0.295,0-0.508-0.082-0.641-0.247c-0.132-0.164-0.198-0.441-0.198-0.83v-3.282
		c0-0.902-0.371-1.353-1.114-1.353c-0.192,0-0.387,0.041-0.583,0.122c-0.196,0.082-0.374,0.191-0.534,0.33
		c-0.16,0.139-0.292,0.3-0.395,0.484c-0.102,0.184-0.153,0.376-0.153,0.577v3.27c0,0.188-0.015,0.342-0.045,0.462
		c-0.029,0.12-0.078,0.213-0.144,0.282c-0.066,0.068-0.153,0.117-0.26,0.145s-0.237,0.042-0.391,0.042
		c-0.205,0-0.344-0.05-0.416-0.15C129.405,32.039,129.369,31.884,129.369,31.675z"/>
</g>
<g>
	<path fill="#FFFFFF" d="M21.921,28.953v9.095c0,1.206-0.951,2.181-2.157,2.181c-1.206,0-2.179-0.975-2.179-2.181v-9.095
		c0-1.184,0.973-2.159,2.179-2.159C20.948,26.794,21.921,27.768,21.921,28.953z M42.252,26.436H22.683
		c0-3.365,2.011-6.286,4.993-7.809l-1.502-2.77c-0.085-0.148-0.043-0.339,0.105-0.423c0.148-0.065,0.339-0.022,0.424,0.126
		l1.524,2.791c1.289-0.571,2.728-0.888,4.252-0.888c1.524,0,2.962,0.318,4.252,0.888l1.524-2.791
		c0.085-0.148,0.276-0.191,0.424-0.126c0.148,0.083,0.19,0.274,0.105,0.423l-1.502,2.77C40.243,20.15,42.252,23.071,42.252,26.436z
		 M42.189,41.287c0,1.289-1.036,2.326-2.305,2.326h-1.587v4.802c0,1.206-0.973,2.181-2.179,2.181s-2.179-0.975-2.179-2.181v-4.802
		h-2.921v4.802c0,1.206-0.973,2.181-2.179,2.181c-1.184,0-2.157-0.975-2.157-2.181l-0.022-4.802h-1.565
		c-1.291,0-2.327-1.036-2.327-2.326V27.198h19.421V41.287z M28.839,22.078c0-0.444-0.359-0.827-0.825-0.827
		c-0.444,0-0.803,0.382-0.803,0.827s0.359,0.823,0.803,0.823C28.479,22.901,28.839,22.522,28.839,22.078z M37.746,22.078
		c0-0.444-0.359-0.827-0.803-0.827c-0.466,0-0.825,0.382-0.825,0.827s0.359,0.823,0.825,0.823
		C37.387,22.901,37.746,22.522,37.746,22.078z M47.372,38.048c0,1.206-0.973,2.181-2.179,2.181c-1.184,0-2.157-0.975-2.157-2.181
		v-9.095c0-1.206,0.973-2.159,2.157-2.159c1.206,0,2.179,0.953,2.179,2.159V38.048z"/>
</g>
<g>
	<path fill="#FFFFFF" d="M67.864,42.119c-0.247,0-0.431-0.063-0.553-0.191c-0.122-0.127-0.182-0.34-0.182-0.636v-0.704
		c-0.271-0.07-0.614-0.105-1.025-0.105c-0.42,0-0.807,0.086-1.161,0.257s-0.66,0.422-0.917,0.753
		c-0.257,0.332-0.458,0.742-0.602,1.232c-0.145,0.49-0.216,1.055-0.216,1.692c0,0.713,0.062,1.309,0.185,1.788
		s0.304,0.865,0.541,1.155s0.527,0.497,0.871,0.62c0.344,0.124,0.734,0.186,1.17,0.186c0.593,0,1.099-0.084,1.519-0.253v-2.736
		H66.08c-0.103,0-0.181-0.034-0.235-0.102c-0.054-0.068-0.08-0.147-0.08-0.238c0-0.099,0.03-0.182,0.089-0.25
		c0.06-0.067,0.147-0.102,0.263-0.102h2.149c0.222,0,0.371,0.04,0.444,0.12c0.074,0.08,0.111,0.209,0.111,0.386v2.613
		c0,0.119-0.008,0.22-0.025,0.303c-0.016,0.082-0.041,0.151-0.074,0.206c-0.033,0.056-0.074,0.102-0.124,0.137
		c-0.05,0.034-0.109,0.064-0.179,0.089c-0.799,0.313-1.692,0.47-2.681,0.47c-0.7,0-1.299-0.102-1.797-0.306
		s-0.908-0.496-1.229-0.877s-0.557-0.844-0.708-1.39c-0.15-0.546-0.225-1.16-0.225-1.844c0-0.778,0.109-1.454,0.327-2.026
		s0.516-1.044,0.893-1.417s0.818-0.65,1.325-0.834c0.507-0.184,1.048-0.274,1.625-0.274c0.198,0,0.418,0.01,0.661,0.03
		c0.243,0.021,0.478,0.052,0.704,0.093c0.226,0.041,0.429,0.093,0.608,0.154c0.179,0.062,0.306,0.136,0.379,0.223
		c0.07,0.082,0.105,0.214,0.105,0.396v0.747C68.408,41.907,68.227,42.119,67.864,42.119z"/>
	<path fill="#FFFFFF" d="M78.099,44.331c0,0.214-0.015,0.472-0.043,0.774s-0.088,0.621-0.179,0.955
		c-0.09,0.333-0.221,0.663-0.392,0.991c-0.171,0.327-0.399,0.62-0.686,0.88s-0.639,0.471-1.059,0.633
		c-0.42,0.163-0.924,0.244-1.513,0.244c-0.593,0-1.1-0.082-1.52-0.247s-0.772-0.38-1.056-0.646s-0.511-0.564-0.68-0.896
		c-0.168-0.331-0.296-0.663-0.383-0.994c-0.086-0.332-0.142-0.646-0.167-0.945c-0.025-0.299-0.037-0.549-0.037-0.75
		c0-0.219,0.014-0.481,0.043-0.788s0.089-0.627,0.179-0.96c0.091-0.334,0.221-0.664,0.392-0.991
		c0.171-0.328,0.398-0.621,0.683-0.881c0.284-0.259,0.634-0.469,1.05-0.63c0.416-0.16,0.914-0.24,1.495-0.24s1.08,0.081,1.498,0.243
		c0.418,0.163,0.771,0.376,1.059,0.64c0.289,0.264,0.519,0.56,0.692,0.89c0.173,0.329,0.306,0.66,0.398,0.991
		s0.153,0.649,0.182,0.954S78.099,44.121,78.099,44.331z M74.226,40.482c-0.358,0-0.666,0.064-0.923,0.191
		c-0.258,0.128-0.476,0.296-0.655,0.504s-0.323,0.446-0.433,0.717c-0.109,0.27-0.193,0.546-0.253,0.83
		c-0.06,0.284-0.1,0.566-0.121,0.847c-0.021,0.279-0.031,0.533-0.031,0.76c0,0.193,0.008,0.423,0.024,0.688
		c0.017,0.266,0.052,0.54,0.105,0.824c0.054,0.284,0.133,0.565,0.238,0.843c0.105,0.278,0.247,0.526,0.426,0.745
		c0.179,0.218,0.4,0.395,0.664,0.531c0.264,0.136,0.583,0.203,0.958,0.203c0.362-0.008,0.674-0.074,0.936-0.197
		c0.261-0.124,0.482-0.286,0.661-0.488c0.179-0.201,0.324-0.434,0.435-0.694c0.111-0.262,0.197-0.533,0.256-0.815
		s0.1-0.564,0.121-0.847c0.021-0.281,0.031-0.546,0.031-0.793c0-0.198-0.007-0.431-0.021-0.698
		c-0.015-0.268-0.048-0.545-0.102-0.831s-0.133-0.567-0.238-0.843s-0.248-0.524-0.429-0.744c-0.181-0.221-0.407-0.397-0.676-0.531
		S74.604,40.482,74.226,40.482z"/>
	<path fill="#FFFFFF" d="M87.153,44.331c0,0.214-0.015,0.472-0.043,0.774c-0.029,0.303-0.089,0.621-0.18,0.955
		c-0.091,0.333-0.221,0.663-0.392,0.991c-0.171,0.327-0.399,0.62-0.686,0.88c-0.287,0.26-0.64,0.471-1.06,0.633
		c-0.42,0.163-0.925,0.244-1.514,0.244c-0.593,0-1.099-0.082-1.519-0.247c-0.42-0.165-0.772-0.38-1.056-0.646
		s-0.511-0.564-0.68-0.896c-0.168-0.331-0.296-0.663-0.383-0.994c-0.086-0.332-0.142-0.646-0.167-0.945
		c-0.025-0.299-0.037-0.549-0.037-0.75c0-0.219,0.014-0.481,0.043-0.788s0.089-0.627,0.179-0.96
		c0.091-0.334,0.221-0.664,0.392-0.991c0.171-0.328,0.398-0.621,0.683-0.881c0.284-0.259,0.634-0.469,1.05-0.63
		c0.415-0.16,0.914-0.24,1.494-0.24c0.581,0,1.08,0.081,1.498,0.243c0.418,0.163,0.771,0.376,1.06,0.64s0.519,0.56,0.691,0.89
		c0.173,0.329,0.306,0.66,0.398,0.991s0.153,0.649,0.183,0.954C87.139,43.863,87.153,44.121,87.153,44.331z M83.28,40.482
		c-0.357,0-0.665,0.064-0.923,0.191c-0.258,0.128-0.476,0.296-0.655,0.504s-0.323,0.446-0.433,0.717
		c-0.109,0.27-0.193,0.546-0.253,0.83c-0.06,0.284-0.1,0.566-0.121,0.847c-0.021,0.279-0.031,0.533-0.031,0.76
		c0,0.193,0.008,0.423,0.024,0.688c0.017,0.266,0.052,0.54,0.105,0.824c0.054,0.284,0.133,0.565,0.238,0.843
		c0.105,0.278,0.247,0.526,0.426,0.745c0.179,0.218,0.4,0.395,0.664,0.531c0.264,0.136,0.583,0.203,0.957,0.203
		c0.362-0.008,0.675-0.074,0.937-0.197c0.261-0.124,0.481-0.286,0.66-0.488c0.18-0.201,0.324-0.434,0.436-0.694
		c0.111-0.262,0.196-0.533,0.257-0.815c0.06-0.282,0.1-0.564,0.12-0.847c0.021-0.281,0.031-0.546,0.031-0.793
		c0-0.198-0.008-0.431-0.022-0.698c-0.014-0.268-0.048-0.545-0.102-0.831s-0.133-0.567-0.237-0.843
		c-0.105-0.275-0.248-0.524-0.43-0.744c-0.182-0.221-0.406-0.397-0.677-0.531C83.983,40.55,83.659,40.482,83.28,40.482z"/>
	<path fill="#FFFFFF" d="M94.577,42.119c-0.247,0-0.432-0.063-0.553-0.191c-0.121-0.127-0.182-0.34-0.182-0.636v-0.704
		c-0.272-0.07-0.614-0.105-1.025-0.105c-0.42,0-0.808,0.086-1.161,0.257c-0.354,0.171-0.66,0.422-0.918,0.753
		c-0.257,0.332-0.458,0.742-0.602,1.232c-0.145,0.49-0.217,1.055-0.217,1.692c0,0.713,0.063,1.309,0.186,1.788
		c0.124,0.479,0.304,0.865,0.541,1.155c0.236,0.29,0.526,0.497,0.87,0.62c0.344,0.124,0.734,0.186,1.171,0.186
		c0.593,0,1.1-0.084,1.52-0.253v-2.736h-1.415c-0.103,0-0.181-0.034-0.234-0.102c-0.054-0.068-0.08-0.147-0.08-0.238
		c0-0.099,0.029-0.182,0.09-0.25c0.06-0.067,0.146-0.102,0.262-0.102h2.149c0.223,0,0.371,0.04,0.445,0.12s0.111,0.209,0.111,0.386
		v2.613c0,0.119-0.009,0.22-0.025,0.303c-0.017,0.082-0.041,0.151-0.074,0.206c-0.032,0.056-0.074,0.102-0.123,0.137
		c-0.05,0.034-0.109,0.064-0.18,0.089c-0.799,0.313-1.692,0.47-2.68,0.47c-0.7,0-1.3-0.102-1.798-0.306s-0.908-0.496-1.229-0.877
		c-0.32-0.381-0.557-0.844-0.707-1.39s-0.226-1.16-0.226-1.844c0-0.778,0.109-1.454,0.328-2.026
		c0.218-0.572,0.516-1.044,0.893-1.417c0.376-0.373,0.818-0.65,1.324-0.834c0.507-0.184,1.048-0.274,1.625-0.274
		c0.197,0,0.417,0.01,0.66,0.03s0.478,0.052,0.704,0.093s0.43,0.093,0.608,0.154c0.18,0.062,0.306,0.136,0.38,0.223
		c0.07,0.082,0.105,0.214,0.105,0.396v0.747C95.121,41.907,94.939,42.119,94.577,42.119z"/>
	<path fill="#FFFFFF" d="M102.662,46.443c0.362,0,0.543,0.21,0.543,0.63v1.328c0,0.147-0.062,0.253-0.185,0.314
		c-0.124,0.062-0.315,0.093-0.574,0.093h-4.176c-0.387,0-0.58-0.21-0.58-0.63v-7.708c0-0.235,0.043-0.398,0.129-0.491
		c0.087-0.093,0.229-0.139,0.427-0.139c0.264,0,0.464,0.082,0.602,0.247c0.139,0.165,0.207,0.408,0.207,0.729v7.324h2.872v-0.874
		c0-0.298,0.061-0.51,0.183-0.636C102.23,46.506,102.415,46.443,102.662,46.443z"/>
	<path fill="#FFFFFF" d="M110.006,42.039c-0.251,0-0.437-0.063-0.556-0.189c-0.119-0.126-0.179-0.338-0.179-0.635v-0.707h-2.996
		v3.316h2.656c0.111,0,0.197,0.035,0.26,0.105c0.062,0.069,0.092,0.152,0.092,0.246c0,0.042-0.01,0.083-0.03,0.124
		s-0.048,0.078-0.08,0.111c-0.033,0.033-0.07,0.06-0.111,0.08s-0.085,0.031-0.13,0.031h-2.656v3.619h3.188v-0.707
		c0-0.298,0.06-0.51,0.179-0.636c0.12-0.126,0.305-0.189,0.556-0.189c0.186,0,0.322,0.05,0.411,0.148s0.133,0.26,0.133,0.482v1.099
		c0,0.186-0.061,0.311-0.183,0.374c-0.121,0.063-0.313,0.096-0.577,0.096h-4.49c-0.387,0-0.58-0.21-0.58-0.63v-7.708
		c0-0.42,0.193-0.63,0.58-0.63h4.299c0.264,0,0.456,0.031,0.577,0.096c0.122,0.063,0.183,0.188,0.183,0.373v1.1
		c0,0.223-0.044,0.383-0.133,0.481C110.328,41.99,110.191,42.039,110.006,42.039z"/>
	<path fill="#FFFFFF" d="M118.986,45.331h-1.315v2.656c0,0.296-0.063,0.508-0.188,0.633c-0.125,0.126-0.324,0.188-0.596,0.188
		c-0.387,0-0.58-0.21-0.58-0.63v-7.708c0-0.235,0.043-0.398,0.129-0.491c0.087-0.093,0.229-0.139,0.427-0.139h2.112
		c0.144,0,0.308,0.002,0.491,0.006c0.183,0.004,0.377,0.021,0.583,0.053c0.206,0.03,0.42,0.081,0.643,0.151
		c0.223,0.069,0.444,0.173,0.667,0.309c0.145,0.086,0.28,0.193,0.408,0.321c0.127,0.127,0.238,0.276,0.333,0.447
		s0.169,0.367,0.223,0.587c0.054,0.221,0.08,0.469,0.08,0.744c0,0.404-0.07,0.779-0.21,1.127c-0.14,0.349-0.353,0.652-0.636,0.911
		c-0.284,0.26-0.641,0.464-1.069,0.612C120.06,45.257,119.559,45.331,118.986,45.331z M118.975,40.508h-1.304v4.156h1.304
		c0.634,0,1.126-0.179,1.476-0.536c0.351-0.356,0.525-0.913,0.525-1.669c0-0.314-0.037-0.593-0.111-0.836
		c-0.074-0.244-0.191-0.448-0.352-0.613c-0.161-0.166-0.368-0.291-0.621-0.375C119.639,40.55,119.333,40.508,118.975,40.508z"/>
	<path fill="#FFFFFF" d="M129.085,46.443c0.362,0,0.543,0.21,0.543,0.63v1.328c0,0.147-0.062,0.253-0.185,0.314
		c-0.124,0.062-0.315,0.093-0.574,0.093h-4.176c-0.387,0-0.58-0.21-0.58-0.63v-7.708c0-0.235,0.043-0.398,0.129-0.491
		c0.087-0.093,0.229-0.139,0.427-0.139c0.264,0,0.464,0.082,0.602,0.247c0.139,0.165,0.207,0.408,0.207,0.729v7.324h2.872v-0.874
		c0-0.298,0.061-0.51,0.183-0.636C128.653,46.506,128.838,46.443,129.085,46.443z"/>
	<path fill="#FFFFFF" d="M132.358,46.412l-0.648,1.725c-0.103,0.268-0.219,0.446-0.349,0.536c-0.13,0.091-0.271,0.136-0.423,0.136
		c-0.12,0-0.206-0.033-0.26-0.099c-0.054-0.066-0.08-0.15-0.08-0.254c0-0.086,0.021-0.187,0.062-0.302l2.978-8.012
		c0.037-0.099,0.118-0.174,0.243-0.225c0.126-0.052,0.275-0.077,0.448-0.077c0.186,0,0.35,0.029,0.494,0.089s0.236,0.144,0.278,0.25
		l2.896,8.023c0.017,0.07,0.024,0.132,0.024,0.186c0,0.119-0.039,0.219-0.117,0.3c-0.078,0.08-0.204,0.12-0.377,0.12
		c-0.469,0-0.784-0.224-0.944-0.672l-0.674-1.725H132.358z M135.719,45.745l-1.525-4.41h-0.08l-1.557,4.41H135.719z"/>
	<path fill="#FFFFFF" d="M141.994,48.809c-0.396,0-0.593-0.21-0.593-0.63v-2.761l-2.495-4.817c-0.05-0.115-0.074-0.221-0.074-0.315
		c0-0.128,0.042-0.233,0.127-0.318c0.084-0.084,0.194-0.126,0.33-0.126c0.111,0,0.212,0.01,0.303,0.03s0.175,0.057,0.253,0.108
		s0.151,0.119,0.22,0.204c0.067,0.084,0.133,0.188,0.194,0.312l2.014,3.978h0.049l1.896-3.959c0.214-0.449,0.472-0.673,0.772-0.673
		c0.119,0,0.209,0.04,0.269,0.12s0.09,0.18,0.09,0.3c0,0.082-0.023,0.175-0.068,0.277l-2.514,4.88v2.631
		c0,0.292-0.061,0.492-0.183,0.6C142.463,48.755,142.267,48.809,141.994,48.809z"/>
</g>
</svg>
