<?xml version="1.0" encoding="utf-8"?>
<!-- Generator: Adobe Illustrator 17.0.1, SVG Export Plug-In . SVG Version: 6.00 Build 0)  -->
<!DOCTYPE svg PUBLIC "-//W3C//DTD SVG 1.1//EN" "http://www.w3.org/Graphics/SVG/1.1/DTD/svg11.dtd">
<svg version="1.1" id="Layer_1" xmlns="http://www.w3.org/2000/svg" xmlns:xlink="http://www.w3.org/1999/xlink" x="0px" y="0px"
	 width="180px" height="30px" viewBox="0 0 180 30" enable-background="new 0 0 180 30" xml:space="preserve">
<g>
	<path fill="#FFFFFF" d="M30.525,21.844c-0.433,0-1.78-1.564-2.13-1.914l-1.598,1.597l3.66,3.66c0.3,0.3,0.466,0.715,0.466,1.132
		c0,0.932-1.065,1.997-1.997,1.997c-0.415,0-0.832-0.167-1.131-0.466L16.632,16.687c-1.747,1.298-3.876,2.179-6.073,2.179
		c-3.626,0-6.122-2.513-6.122-6.122c0-5.457,5.458-10.914,10.914-10.914c3.611,0,6.122,2.496,6.122,6.122
		c0,2.196-0.881,4.326-2.179,6.073l5.906,5.906l1.597-1.597c-0.35-0.35-1.913-1.698-1.913-2.13c0-0.383,1.531-1.914,1.913-1.914
		c0.134,0,0.283,0.066,0.383,0.166c0.616,0.616,5.257,4.992,5.257,5.474C32.438,20.314,30.907,21.844,30.525,21.844z M15.085,5.024
		c-1.763,0-3.194,1.431-3.194,3.194c0,0.482,0.117,0.948,0.316,1.381c-0.433-0.2-0.899-0.316-1.381-0.316
		c-1.763,0-3.194,1.431-3.194,3.194s1.432,3.194,3.194,3.194c1.764,0,3.194-1.431,3.194-3.194c0-0.482-0.117-0.948-0.316-1.381
		c0.433,0.2,0.899,0.316,1.381,0.316c1.764,0,3.194-1.431,3.194-3.194S16.849,5.024,15.085,5.024z"/>
</g>
<g>
	<g>
		<circle fill="#FFFFFF" cx="53.476" cy="15.094" r="12.911"/>
	</g>
	<g>
		<g>
			<path fill="#FFFFFF" d="M53.476,25.781c-5.893,0-10.688-4.794-10.688-10.687c0-5.893,4.794-10.688,10.688-10.688
				c5.892,0,10.687,4.794,10.687,10.688C64.162,20.987,59.368,25.781,53.476,25.781z"/>
			<path fill="#FFFFFF" d="M53.476,4.617c5.785,0,10.476,4.695,10.476,10.477c0,5.785-4.691,10.476-10.476,10.476
				c-5.787,0-10.477-4.691-10.477-10.476C42.998,9.312,47.688,4.617,53.476,4.617 M53.476,4.196
				c-6.009,0-10.898,4.889-10.898,10.898c0,6.009,4.889,10.897,10.898,10.897c6.008,0,10.897-4.888,10.897-10.897
				C64.372,9.085,59.484,4.196,53.476,4.196L53.476,4.196z"/>
		</g>
	</g>
	<path fill="#FFFFFF" d="M72,7.442c0-2.185-1.288-3.955-2.878-3.955c-1.588,0-2.877,1.77-2.877,3.955
		c0,1.927,1.004,3.529,2.329,3.882l-0.21,13.186c0,0.422,0.338,0.76,0.757,0.76c0.419,0,0.757-0.338,0.757-0.76l-0.205-13.187
		C70.998,10.971,72,9.369,72,7.442z"/>
	<path fill="#FFFFFF" d="M39.636,9.175L39.44,3.515c0-0.102-0.083-0.185-0.187-0.185c-0.104,0-0.188,0.084-0.188,0.185v5.174
		c-0.018-0.002-0.038-0.006-0.059-0.006h-0.403l-0.147-5.166c0-0.102-0.081-0.187-0.185-0.188c-0.105,0-0.186,0.084-0.189,0.186
		l-0.03,5.168H37.59l-0.095-5.169c-0.003-0.106-0.087-0.189-0.193-0.185c-0.099,0.001-0.183,0.086-0.183,0.191l-0.08,5.163h-0.391
		c-0.02,0-0.041,0.004-0.059,0.006V3.515c0-0.102-0.086-0.185-0.185-0.185c-0.105,0-0.19,0.084-0.19,0.185l-0.193,5.659
		C36.009,9.228,36,9.28,36,9.335v0.914c0,0.351,0.903,1.261,1.277,1.295L37.07,24.51c0,0.422,0.34,0.76,0.759,0.76
		c0.417,0,0.756-0.338,0.756-0.76l-0.203-12.966c0.377-0.038,1.275-0.944,1.275-1.295V9.335C39.656,9.28,39.648,9.228,39.636,9.175z
		"/>
</g>
<g>
	<rect x="86.818" y="1.778" fill="#FFFFFF" width="6.364" height="1.708"/>
	<rect x="88.621" y="3.486" fill="#FFFFFF" width="2.758" height="2.869"/>
	<rect x="73.5" y="11.078" fill="#FFFFFF" width="33" height="2.153"/>
	<g>
		<polygon fill="#FFFFFF" points="102.98,7.78 77.021,7.78 77.021,9.489 80.154,9.489 80.154,8.335 82.897,8.335 82.897,9.489 
			102.98,9.489 		"/>
	</g>
	<polygon fill="#FFFFFF" points="90,4.631 77.021,8.042 102.98,8.042 	"/>
	<path fill="#FFFFFF" d="M77.021,11.61v13.331c0,1.913,1.557,3.469,3.47,3.469h19.016c1.919,0,3.474-1.556,3.474-3.469V11.61H77.021
		z M82.897,24.606h-2.742V13.231h2.742V24.606z"/>
</g>
<g>
	<path fill="#FFFFFF" d="M116.34,27.705c0,0.875,0.724,1.587,1.614,1.587h16.146c0.892,0,1.617-0.711,1.617-1.587l-0.023-0.574
		h-19.331L116.34,27.705z"/>
	<path fill="#FFFFFF" d="M135.145,12.401c0-0.876-0.722-1.588-1.615-1.588h-15.005c-0.89,0-1.615,0.712-1.615,1.588l-0.527,14.126
		h19.289L135.145,12.401z M120.518,25.569h-1.968v-12.41h1.968V25.569z"/>
	<g>
		<circle fill="#FFFFFF" cx="116.97" cy="10.837" r="5.941"/>
		<path fill="#FFFFFF" d="M112.406,10.289c0-2.171,1.762-3.931,3.934-3.931c0.186,0,0.362,0.03,0.543,0.055
			c-1.915,0.267-3.393,1.89-3.393,3.876H112.406z"/>
		<circle fill="#FFFFFF" cx="126.028" cy="8.6" r="7.705"/>
		<circle fill="#FFFFFF" cx="135.087" cy="10.837" r="5.941"/>
	</g>
</g>
<g>
	<path fill="#FFFFFF" d="M178.5,22.333c0,1.413-1.49,1.222-2.444,1.222c0,2.692-2.197,4.889-4.889,4.889s-4.889-2.197-4.889-4.889
		h-7.333c0,2.692-2.197,4.889-4.889,4.889s-4.889-2.197-4.889-4.889h-1.222c-0.955,0-2.444,0.191-2.444-1.222
		c0-0.668,0.554-1.222,1.222-1.222V15c0-1.356-0.192-2.865,0.86-3.914l3.781-3.782c0.476-0.477,1.395-0.859,2.08-0.859h3.057V2.778
		c0-0.668,0.554-1.222,1.222-1.222h19.556c0.668,0,1.222,0.554,1.222,1.222V22.333z M156.5,13.778V8.889h-3.018
		c-0.075,0-0.362,0.114-0.42,0.171l-3.722,3.725c-0.058,0.057-0.173,0.344-0.173,0.419v0.574H156.5z M154.056,21.111
		c-1.336,0-2.444,1.108-2.444,2.444S152.719,26,154.056,26s2.444-1.108,2.444-2.444S155.392,21.111,154.056,21.111z M171.167,21.111
		c-1.336,0-2.444,1.108-2.444,2.444S169.83,26,171.167,26c1.336,0,2.444-1.108,2.444-2.444S172.503,21.111,171.167,21.111z"/>
</g>
</svg>
